<mxfile host="app.diagrams.net" agent="Mozilla/5.0 (Windows NT 10.0; Win64; x64) AppleWebKit/537.36 (KHTML, like Gecko) Chrome/138.0.0.0 Safari/537.36" version="28.0.5">
  <diagram name="Page-1" id="BEB-IP1nqyMpb0C118ih">
    <mxGraphModel dx="4277" dy="2514" grid="1" gridSize="10" guides="1" tooltips="1" connect="1" arrows="1" fold="1" page="1" pageScale="1" pageWidth="850" pageHeight="1100" math="0" shadow="0">
      <root>
        <mxCell id="0" />
        <mxCell id="1" parent="0" />
        <mxCell id="4gT0J_dM45npyuXSQP9Q-378" style="edgeStyle=orthogonalEdgeStyle;rounded=0;orthogonalLoop=1;jettySize=auto;html=1;entryX=0;entryY=0.5;entryDx=0;entryDy=0;" parent="1" source="4gT0J_dM45npyuXSQP9Q-165" target="4gT0J_dM45npyuXSQP9Q-375" edge="1">
          <mxGeometry relative="1" as="geometry" />
        </mxCell>
        <mxCell id="4gT0J_dM45npyuXSQP9Q-165" value="&lt;div&gt;&lt;font style=&quot;font-size: 18px;&quot;&gt;&lt;br&gt;&lt;/font&gt;&lt;/div&gt;" style="rounded=0;whiteSpace=wrap;html=1;movable=1;resizable=1;rotatable=1;deletable=1;editable=1;locked=0;connectable=1;" parent="1" vertex="1">
          <mxGeometry x="-1230" y="-140" width="1960" height="1380" as="geometry" />
        </mxCell>
        <mxCell id="4gT0J_dM45npyuXSQP9Q-371" style="edgeStyle=orthogonalEdgeStyle;rounded=0;orthogonalLoop=1;jettySize=auto;html=1;entryX=1;entryY=0.5;entryDx=0;entryDy=0;" parent="1" source="4gT0J_dM45npyuXSQP9Q-235" target="4gT0J_dM45npyuXSQP9Q-369" edge="1">
          <mxGeometry relative="1" as="geometry">
            <Array as="points">
              <mxPoint x="1771" y="600" />
              <mxPoint x="1771" y="900" />
            </Array>
          </mxGeometry>
        </mxCell>
        <mxCell id="4gT0J_dM45npyuXSQP9Q-235" value="" style="rounded=0;whiteSpace=wrap;html=1;movable=1;resizable=1;rotatable=1;deletable=1;editable=1;locked=0;connectable=1;" parent="1" vertex="1">
          <mxGeometry x="2261.24" y="-335" width="3238.76" height="1325" as="geometry" />
        </mxCell>
        <mxCell id="4gT0J_dM45npyuXSQP9Q-213" value="" style="edgeStyle=orthogonalEdgeStyle;rounded=0;orthogonalLoop=1;jettySize=auto;html=1;" parent="1" source="4gT0J_dM45npyuXSQP9Q-2" target="4gT0J_dM45npyuXSQP9Q-167" edge="1">
          <mxGeometry relative="1" as="geometry" />
        </mxCell>
        <mxCell id="4gT0J_dM45npyuXSQP9Q-2" value="&lt;font style=&quot;font-size: 18px;&quot;&gt;เริ่มต้น&lt;/font&gt;" style="ellipse;whiteSpace=wrap;html=1;" parent="1" vertex="1">
          <mxGeometry x="1122" y="40" width="155" height="50" as="geometry" />
        </mxCell>
        <mxCell id="4gT0J_dM45npyuXSQP9Q-240" value="" style="edgeStyle=orthogonalEdgeStyle;rounded=0;orthogonalLoop=1;jettySize=auto;html=1;" parent="1" source="4gT0J_dM45npyuXSQP9Q-8" target="4gT0J_dM45npyuXSQP9Q-13" edge="1">
          <mxGeometry relative="1" as="geometry" />
        </mxCell>
        <mxCell id="4gT0J_dM45npyuXSQP9Q-8" value="&lt;font style=&quot;font-size: 14px;&quot;&gt;&amp;nbsp;รับค่าเลือกเมนูที่เลือก จากผู้ใช้&lt;/font&gt;" style="shape=parallelogram;perimeter=parallelogramPerimeter;whiteSpace=wrap;html=1;fixedSize=1;" parent="1" vertex="1">
          <mxGeometry x="2377.12" y="-89.17" width="246.87" height="60" as="geometry" />
        </mxCell>
        <mxCell id="4gT0J_dM45npyuXSQP9Q-9" value="" style="edgeStyle=orthogonalEdgeStyle;rounded=0;orthogonalLoop=1;jettySize=auto;html=1;" parent="1" source="4gT0J_dM45npyuXSQP9Q-10" target="4gT0J_dM45npyuXSQP9Q-8" edge="1">
          <mxGeometry relative="1" as="geometry" />
        </mxCell>
        <mxCell id="4gT0J_dM45npyuXSQP9Q-10" value="" style="ellipse;whiteSpace=wrap;html=1;aspect=fixed;" parent="1" vertex="1">
          <mxGeometry x="2465.55" y="-179.17000000000002" width="70" height="70" as="geometry" />
        </mxCell>
        <mxCell id="4gT0J_dM45npyuXSQP9Q-12" value="" style="edgeStyle=orthogonalEdgeStyle;rounded=0;orthogonalLoop=1;jettySize=auto;html=1;entryX=0.5;entryY=0;entryDx=0;entryDy=0;" parent="1" source="4gT0J_dM45npyuXSQP9Q-13" target="4gT0J_dM45npyuXSQP9Q-27" edge="1">
          <mxGeometry relative="1" as="geometry">
            <mxPoint x="2710.23" y="90.83" as="targetPoint" />
          </mxGeometry>
        </mxCell>
        <mxCell id="4gT0J_dM45npyuXSQP9Q-241" style="edgeStyle=orthogonalEdgeStyle;rounded=0;orthogonalLoop=1;jettySize=auto;html=1;entryX=0.5;entryY=0;entryDx=0;entryDy=0;" parent="1" source="4gT0J_dM45npyuXSQP9Q-13" target="4gT0J_dM45npyuXSQP9Q-24" edge="1">
          <mxGeometry relative="1" as="geometry" />
        </mxCell>
        <mxCell id="4gT0J_dM45npyuXSQP9Q-13" value="&lt;font style=&quot;font-size: 14px;&quot;&gt;ลูกค้าเลือก&lt;/font&gt;&lt;div&gt;&lt;font style=&quot;font-size: 14px;&quot;&gt;ซื้อสินค้าใช้หรือไม่&lt;/font&gt;&lt;/div&gt;" style="rhombus;whiteSpace=wrap;html=1;" parent="1" vertex="1">
          <mxGeometry x="2412.3" y="10.829999999999998" width="176.5" height="100" as="geometry" />
        </mxCell>
        <mxCell id="4gT0J_dM45npyuXSQP9Q-230" style="edgeStyle=orthogonalEdgeStyle;rounded=0;orthogonalLoop=1;jettySize=auto;html=1;entryX=1;entryY=0.5;entryDx=0;entryDy=0;" parent="1" source="4gT0J_dM45npyuXSQP9Q-15" target="4gT0J_dM45npyuXSQP9Q-24" edge="1">
          <mxGeometry relative="1" as="geometry">
            <Array as="points">
              <mxPoint x="2680.33" y="449.83" />
              <mxPoint x="2680.33" y="195.82999999999998" />
            </Array>
          </mxGeometry>
        </mxCell>
        <mxCell id="4gT0J_dM45npyuXSQP9Q-15" value="&lt;font style=&quot;font-size: 12px;&quot;&gt;printf รายการสินค้าที่เลือก&lt;/font&gt;" style="shape=parallelogram;perimeter=parallelogramPerimeter;whiteSpace=wrap;html=1;fixedSize=1;" parent="1" vertex="1">
          <mxGeometry x="2721.57" y="428.87999999999994" width="174.32" height="36.95" as="geometry" />
        </mxCell>
        <mxCell id="4gT0J_dM45npyuXSQP9Q-16" value="" style="edgeStyle=orthogonalEdgeStyle;rounded=0;orthogonalLoop=1;jettySize=auto;html=1;" parent="1" source="4gT0J_dM45npyuXSQP9Q-18" target="4gT0J_dM45npyuXSQP9Q-20" edge="1">
          <mxGeometry relative="1" as="geometry" />
        </mxCell>
        <mxCell id="4gT0J_dM45npyuXSQP9Q-366" style="edgeStyle=orthogonalEdgeStyle;rounded=0;orthogonalLoop=1;jettySize=auto;html=1;entryX=0;entryY=0.5;entryDx=0;entryDy=0;" parent="1" source="4gT0J_dM45npyuXSQP9Q-18" target="4gT0J_dM45npyuXSQP9Q-10" edge="1">
          <mxGeometry relative="1" as="geometry">
            <Array as="points">
              <mxPoint x="2330" y="346" />
              <mxPoint x="2330" y="-144" />
            </Array>
          </mxGeometry>
        </mxCell>
        <mxCell id="4gT0J_dM45npyuXSQP9Q-18" value="&lt;font style=&quot;font-size: 14px;&quot;&gt;ลูกค้าเลือก&lt;/font&gt;&lt;div&gt;&lt;font size=&quot;3&quot; style=&quot;&quot;&gt;ซื้อสินค้าเพิ่มหรือไม่&lt;/font&gt;&lt;/div&gt;" style="rhombus;whiteSpace=wrap;html=1;" parent="1" vertex="1">
          <mxGeometry x="2395.3900000000003" y="296.83" width="210.32" height="98.59" as="geometry" />
        </mxCell>
        <mxCell id="4gT0J_dM45npyuXSQP9Q-367" style="edgeStyle=orthogonalEdgeStyle;rounded=0;orthogonalLoop=1;jettySize=auto;html=1;" parent="1" source="4gT0J_dM45npyuXSQP9Q-20" target="4gT0J_dM45npyuXSQP9Q-368" edge="1">
          <mxGeometry relative="1" as="geometry">
            <mxPoint x="2501" y="860" as="targetPoint" />
          </mxGeometry>
        </mxCell>
        <mxCell id="4gT0J_dM45npyuXSQP9Q-20" value="&lt;font style=&quot;font-size: 14px;&quot;&gt;printf รายการสินค้าทั้งหมดที่เลือก&lt;/font&gt;&lt;div&gt;&lt;font size=&quot;3&quot;&gt;และ ยอดรวม&lt;/font&gt;&lt;/div&gt;" style="shape=parallelogram;perimeter=parallelogramPerimeter;whiteSpace=wrap;html=1;fixedSize=1;" parent="1" vertex="1">
          <mxGeometry x="2382.1800000000003" y="441.83000000000004" width="236.74" height="65" as="geometry" />
        </mxCell>
        <mxCell id="4gT0J_dM45npyuXSQP9Q-21" value="ไม่" style="text;html=1;align=center;verticalAlign=middle;resizable=0;points=[];autosize=1;strokeColor=none;fillColor=none;" parent="1" vertex="1">
          <mxGeometry x="2515.8700000000003" y="120.83" width="40" height="30" as="geometry" />
        </mxCell>
        <mxCell id="4gT0J_dM45npyuXSQP9Q-22" value="ใช่" style="text;html=1;align=center;verticalAlign=middle;resizable=0;points=[];autosize=1;strokeColor=none;fillColor=none;" parent="1" vertex="1">
          <mxGeometry x="2588.8" y="20.83" width="40" height="30" as="geometry" />
        </mxCell>
        <mxCell id="4gT0J_dM45npyuXSQP9Q-365" style="edgeStyle=orthogonalEdgeStyle;rounded=0;orthogonalLoop=1;jettySize=auto;html=1;entryX=0.5;entryY=0;entryDx=0;entryDy=0;" parent="1" source="4gT0J_dM45npyuXSQP9Q-24" target="4gT0J_dM45npyuXSQP9Q-18" edge="1">
          <mxGeometry relative="1" as="geometry" />
        </mxCell>
        <mxCell id="4gT0J_dM45npyuXSQP9Q-24" value="" style="ellipse;whiteSpace=wrap;html=1;aspect=fixed;" parent="1" vertex="1">
          <mxGeometry x="2465.55" y="160.82999999999998" width="70" height="70" as="geometry" />
        </mxCell>
        <mxCell id="4gT0J_dM45npyuXSQP9Q-26" value="" style="edgeStyle=orthogonalEdgeStyle;rounded=0;orthogonalLoop=1;jettySize=auto;html=1;entryX=0.5;entryY=0;entryDx=0;entryDy=0;exitX=1;exitY=0.5;exitDx=0;exitDy=0;" parent="1" source="4gT0J_dM45npyuXSQP9Q-27" target="4gT0J_dM45npyuXSQP9Q-34" edge="1">
          <mxGeometry relative="1" as="geometry">
            <mxPoint x="3110.2261538461544" y="170.90692307692285" as="sourcePoint" />
          </mxGeometry>
        </mxCell>
        <mxCell id="4gT0J_dM45npyuXSQP9Q-242" style="edgeStyle=orthogonalEdgeStyle;rounded=0;orthogonalLoop=1;jettySize=auto;html=1;exitX=0.5;exitY=1;exitDx=0;exitDy=0;entryX=0.5;entryY=0;entryDx=0;entryDy=0;" parent="1" source="4gT0J_dM45npyuXSQP9Q-27" target="4gT0J_dM45npyuXSQP9Q-222" edge="1">
          <mxGeometry relative="1" as="geometry" />
        </mxCell>
        <mxCell id="4gT0J_dM45npyuXSQP9Q-27" value="&lt;span style=&quot;font-family: Sarabun; text-align: left; text-wrap-mode: nowrap;&quot;&gt;&lt;font style=&quot;font-size: 12px;&quot;&gt;โค้ก ใช่หรือไม่&lt;/font&gt;&lt;/span&gt;" style="rhombus;whiteSpace=wrap;html=1;" parent="1" vertex="1">
          <mxGeometry x="2738.23" y="130.82999999999998" width="140" height="70" as="geometry" />
        </mxCell>
        <mxCell id="4gT0J_dM45npyuXSQP9Q-28" value="ใช่" style="text;html=1;align=center;verticalAlign=middle;resizable=0;points=[];autosize=1;strokeColor=none;fillColor=none;" parent="1" vertex="1">
          <mxGeometry x="2768.23" y="200.82999999999998" width="40" height="30" as="geometry" />
        </mxCell>
        <mxCell id="4gT0J_dM45npyuXSQP9Q-229" value="" style="edgeStyle=orthogonalEdgeStyle;rounded=0;orthogonalLoop=1;jettySize=auto;html=1;" parent="1" source="4gT0J_dM45npyuXSQP9Q-30" target="4gT0J_dM45npyuXSQP9Q-15" edge="1">
          <mxGeometry relative="1" as="geometry" />
        </mxCell>
        <mxCell id="4gT0J_dM45npyuXSQP9Q-30" value="&lt;div&gt;coke - 1&lt;/div&gt;&lt;div&gt;total + 10&lt;/div&gt;" style="whiteSpace=wrap;html=1;" parent="1" vertex="1">
          <mxGeometry x="2748.73" y="358.33" width="120" height="42.5" as="geometry" />
        </mxCell>
        <mxCell id="4gT0J_dM45npyuXSQP9Q-31" value="ไม่" style="text;html=1;align=center;verticalAlign=middle;resizable=0;points=[];autosize=1;strokeColor=none;fillColor=none;" parent="1" vertex="1">
          <mxGeometry x="2890.3300000000004" y="120.83" width="40" height="30" as="geometry" />
        </mxCell>
        <mxCell id="4gT0J_dM45npyuXSQP9Q-253" style="edgeStyle=orthogonalEdgeStyle;rounded=0;orthogonalLoop=1;jettySize=auto;html=1;entryX=0.5;entryY=0;entryDx=0;entryDy=0;" parent="1" source="4gT0J_dM45npyuXSQP9Q-34" target="4gT0J_dM45npyuXSQP9Q-249" edge="1">
          <mxGeometry relative="1" as="geometry" />
        </mxCell>
        <mxCell id="4gT0J_dM45npyuXSQP9Q-340" style="edgeStyle=orthogonalEdgeStyle;rounded=0;orthogonalLoop=1;jettySize=auto;html=1;entryX=0.5;entryY=0;entryDx=0;entryDy=0;" parent="1" source="4gT0J_dM45npyuXSQP9Q-34" target="4gT0J_dM45npyuXSQP9Q-257" edge="1">
          <mxGeometry relative="1" as="geometry" />
        </mxCell>
        <mxCell id="4gT0J_dM45npyuXSQP9Q-34" value="&lt;span style=&quot;font-family: Sarabun; text-align: left; text-wrap-mode: nowrap;&quot;&gt;&lt;font style=&quot;font-size: 12px;&quot;&gt;น้ำเขียว ใช้หรือไม่&lt;/font&gt;&lt;/span&gt;" style="rhombus;whiteSpace=wrap;html=1;" parent="1" vertex="1">
          <mxGeometry x="3100.33" y="195.82999999999998" width="140" height="70" as="geometry" />
        </mxCell>
        <mxCell id="4gT0J_dM45npyuXSQP9Q-35" value="ใช่" style="text;html=1;align=center;verticalAlign=middle;resizable=0;points=[];autosize=1;strokeColor=none;fillColor=none;" parent="1" vertex="1">
          <mxGeometry x="3123.75" y="265.83" width="40" height="30" as="geometry" />
        </mxCell>
        <mxCell id="4gT0J_dM45npyuXSQP9Q-43" value="ไม่" style="text;html=1;align=center;verticalAlign=middle;resizable=0;points=[];autosize=1;strokeColor=none;fillColor=none;" parent="1" vertex="1">
          <mxGeometry x="3260.33" y="195.82999999999998" width="40" height="30" as="geometry" />
        </mxCell>
        <mxCell id="4gT0J_dM45npyuXSQP9Q-76" value="ไม่" style="text;html=1;align=center;verticalAlign=middle;resizable=0;points=[];autosize=1;strokeColor=none;fillColor=none;" parent="1" vertex="1">
          <mxGeometry x="2515.8700000000003" y="401.83" width="40" height="30" as="geometry" />
        </mxCell>
        <mxCell id="4gT0J_dM45npyuXSQP9Q-77" value="ใช้" style="text;html=1;align=center;verticalAlign=middle;resizable=0;points=[];autosize=1;strokeColor=none;fillColor=none;" parent="1" vertex="1">
          <mxGeometry x="2355.3900000000003" y="296.83" width="40" height="30" as="geometry" />
        </mxCell>
        <mxCell id="4gT0J_dM45npyuXSQP9Q-78" value="" style="edgeStyle=orthogonalEdgeStyle;rounded=0;orthogonalLoop=1;jettySize=auto;html=1;movable=1;resizable=1;rotatable=1;deletable=1;editable=1;locked=0;connectable=1;" parent="1" source="4gT0J_dM45npyuXSQP9Q-79" target="4gT0J_dM45npyuXSQP9Q-96" edge="1">
          <mxGeometry relative="1" as="geometry" />
        </mxCell>
        <mxCell id="4gT0J_dM45npyuXSQP9Q-79" value="&lt;font style=&quot;font-size: 14px;&quot;&gt;scanf รับเงินจากลูกค้า&lt;/font&gt;&lt;div&gt;&lt;span style=&quot;font-size: 14px;&quot;&gt;( money )&lt;/span&gt;&lt;/div&gt;" style="shape=parallelogram;perimeter=parallelogramPerimeter;whiteSpace=wrap;html=1;fixedSize=1;movable=1;resizable=1;rotatable=1;deletable=1;editable=1;locked=0;connectable=1;" parent="1" vertex="1">
          <mxGeometry x="-386.03" y="159.3" width="171.43" height="50" as="geometry" />
        </mxCell>
        <mxCell id="4gT0J_dM45npyuXSQP9Q-80" value="" style="edgeStyle=orthogonalEdgeStyle;rounded=0;orthogonalLoop=1;jettySize=auto;html=1;movable=1;resizable=1;rotatable=1;deletable=1;editable=1;locked=0;connectable=1;" parent="1" source="4gT0J_dM45npyuXSQP9Q-82" target="4gT0J_dM45npyuXSQP9Q-85" edge="1">
          <mxGeometry relative="1" as="geometry" />
        </mxCell>
        <mxCell id="4gT0J_dM45npyuXSQP9Q-81" style="edgeStyle=orthogonalEdgeStyle;rounded=0;orthogonalLoop=1;jettySize=auto;html=1;entryX=0;entryY=0.5;entryDx=0;entryDy=0;exitX=0;exitY=0.5;exitDx=0;exitDy=0;movable=1;resizable=1;rotatable=1;deletable=1;editable=1;locked=0;connectable=1;" parent="1" source="4gT0J_dM45npyuXSQP9Q-82" edge="1">
          <mxGeometry relative="1" as="geometry">
            <mxPoint x="-433.31999999999994" y="912.056999085087" as="sourcePoint" />
            <mxPoint x="-337.9999999999998" y="74.3" as="targetPoint" />
            <Array as="points">
              <mxPoint x="-433.31999999999994" y="74.3" />
            </Array>
          </mxGeometry>
        </mxCell>
        <mxCell id="4gT0J_dM45npyuXSQP9Q-82" value="&lt;font style=&quot;font-size: 14px;&quot;&gt;เงินที่รับมามากกว่า&amp;nbsp;&lt;/font&gt;&lt;div&gt;&lt;font style=&quot;font-size: 14px;&quot;&gt;หรือ เท่ากับยอดรวมหรือไม่&lt;/font&gt;&lt;/div&gt;&lt;div&gt;&lt;span style=&quot;font-size: 14px;&quot;&gt;money &amp;gt;= total&lt;/span&gt;&lt;/div&gt;" style="rhombus;whiteSpace=wrap;html=1;movable=1;resizable=1;rotatable=1;deletable=1;editable=1;locked=0;connectable=1;" parent="1" vertex="1">
          <mxGeometry x="-434.95000000000005" y="819.17" width="269.89" height="139.87" as="geometry" />
        </mxCell>
        <mxCell id="4gT0J_dM45npyuXSQP9Q-374" value="" style="edgeStyle=orthogonalEdgeStyle;rounded=0;orthogonalLoop=1;jettySize=auto;html=1;movable=1;resizable=1;rotatable=1;deletable=1;editable=1;locked=0;connectable=1;" parent="1" source="4gT0J_dM45npyuXSQP9Q-85" target="4gT0J_dM45npyuXSQP9Q-177" edge="1">
          <mxGeometry relative="1" as="geometry" />
        </mxCell>
        <mxCell id="4gT0J_dM45npyuXSQP9Q-85" value="&lt;font style=&quot;font-size: 14px;&quot;&gt;คิดคำนวนหา เงินทอน&lt;/font&gt;&lt;div&gt;&lt;span style=&quot;font-size: 14px;&quot;&gt;money - total = change&lt;/span&gt;&lt;/div&gt;" style="rounded=0;whiteSpace=wrap;html=1;movable=1;resizable=1;rotatable=1;deletable=1;editable=1;locked=0;connectable=1;" parent="1" vertex="1">
          <mxGeometry x="-378.99" y="1029.3000000000002" width="156.98" height="70" as="geometry" />
        </mxCell>
        <mxCell id="4gT0J_dM45npyuXSQP9Q-86" value="" style="edgeStyle=orthogonalEdgeStyle;rounded=0;orthogonalLoop=1;jettySize=auto;html=1;exitX=0.5;exitY=1;exitDx=0;exitDy=0;" parent="1" source="jWHdfV1-SxDjOFl-vo34-1" target="4gT0J_dM45npyuXSQP9Q-91" edge="1">
          <mxGeometry relative="1" as="geometry">
            <mxPoint x="1200.4714285714294" y="1214.94" as="sourcePoint" />
          </mxGeometry>
        </mxCell>
        <mxCell id="4gT0J_dM45npyuXSQP9Q-91" value="&lt;font style=&quot;font-size: 14px;&quot; data-font-src=&quot;https://fonts.googleapis.com/css?family=Sarabun&quot; face=&quot;Sarabun&quot;&gt;สิ้นสุด&lt;/font&gt;" style="ellipse;whiteSpace=wrap;html=1;" parent="1" vertex="1">
          <mxGeometry x="1133.5" y="1274.94" width="135.17" height="50" as="geometry" />
        </mxCell>
        <mxCell id="4gT0J_dM45npyuXSQP9Q-92" value="" style="edgeStyle=orthogonalEdgeStyle;rounded=0;orthogonalLoop=1;jettySize=auto;html=1;movable=1;resizable=1;rotatable=1;deletable=1;editable=1;locked=0;connectable=1;" parent="1" source="4gT0J_dM45npyuXSQP9Q-93" target="4gT0J_dM45npyuXSQP9Q-79" edge="1">
          <mxGeometry relative="1" as="geometry" />
        </mxCell>
        <mxCell id="4gT0J_dM45npyuXSQP9Q-93" value="" style="ellipse;whiteSpace=wrap;html=1;aspect=fixed;movable=1;resizable=1;rotatable=1;deletable=1;editable=1;locked=0;connectable=1;" parent="1" vertex="1">
          <mxGeometry x="-335" y="39.30000000000001" width="70" height="70" as="geometry" />
        </mxCell>
        <mxCell id="4gT0J_dM45npyuXSQP9Q-94" value="" style="edgeStyle=orthogonalEdgeStyle;rounded=0;orthogonalLoop=1;jettySize=auto;html=1;movable=1;resizable=1;rotatable=1;deletable=1;editable=1;locked=0;connectable=1;" parent="1" source="4gT0J_dM45npyuXSQP9Q-96" target="4gT0J_dM45npyuXSQP9Q-99" edge="1">
          <mxGeometry relative="1" as="geometry" />
        </mxCell>
        <mxCell id="4gT0J_dM45npyuXSQP9Q-95" style="edgeStyle=orthogonalEdgeStyle;rounded=0;orthogonalLoop=1;jettySize=auto;html=1;entryX=0.5;entryY=0;entryDx=0;entryDy=0;movable=1;resizable=1;rotatable=1;deletable=1;editable=1;locked=0;connectable=1;" parent="1" source="4gT0J_dM45npyuXSQP9Q-96" target="4gT0J_dM45npyuXSQP9Q-110" edge="1">
          <mxGeometry relative="1" as="geometry" />
        </mxCell>
        <mxCell id="4gT0J_dM45npyuXSQP9Q-96" value="เงินที่รับมาเป็น ธนบัตรใช้หรือไม่" style="rhombus;whiteSpace=wrap;html=1;movable=1;resizable=1;rotatable=1;deletable=1;editable=1;locked=0;connectable=1;" parent="1" vertex="1">
          <mxGeometry x="-400.1399999999999" y="259.3" width="199.65" height="100" as="geometry" />
        </mxCell>
        <mxCell id="4gT0J_dM45npyuXSQP9Q-97" value="" style="edgeStyle=orthogonalEdgeStyle;rounded=0;orthogonalLoop=1;jettySize=auto;html=1;movable=1;resizable=1;rotatable=1;deletable=1;editable=1;locked=0;connectable=1;" parent="1" source="4gT0J_dM45npyuXSQP9Q-99" target="4gT0J_dM45npyuXSQP9Q-101" edge="1">
          <mxGeometry relative="1" as="geometry" />
        </mxCell>
        <mxCell id="4gT0J_dM45npyuXSQP9Q-98" style="edgeStyle=orthogonalEdgeStyle;rounded=0;orthogonalLoop=1;jettySize=auto;html=1;entryX=0.5;entryY=0;entryDx=0;entryDy=0;movable=1;resizable=1;rotatable=1;deletable=1;editable=1;locked=0;connectable=1;" parent="1" source="4gT0J_dM45npyuXSQP9Q-99" target="4gT0J_dM45npyuXSQP9Q-139" edge="1">
          <mxGeometry relative="1" as="geometry" />
        </mxCell>
        <mxCell id="4gT0J_dM45npyuXSQP9Q-99" value="เงินที่รับมาเป็น เหรียญใช้หรือไม่" style="rhombus;whiteSpace=wrap;html=1;movable=1;resizable=1;rotatable=1;deletable=1;editable=1;locked=0;connectable=1;" parent="1" vertex="1">
          <mxGeometry x="-400.51" y="409.29999999999995" width="200.02" height="100" as="geometry" />
        </mxCell>
        <mxCell id="4gT0J_dM45npyuXSQP9Q-100" style="edgeStyle=orthogonalEdgeStyle;rounded=0;orthogonalLoop=1;jettySize=auto;html=1;entryX=0;entryY=0.5;entryDx=0;entryDy=0;movable=1;resizable=1;rotatable=1;deletable=1;editable=1;locked=0;connectable=1;" parent="1" source="4gT0J_dM45npyuXSQP9Q-101" target="4gT0J_dM45npyuXSQP9Q-93" edge="1">
          <mxGeometry relative="1" as="geometry">
            <Array as="points">
              <mxPoint x="-435" y="599.3" />
              <mxPoint x="-435" y="74.3" />
            </Array>
          </mxGeometry>
        </mxCell>
        <mxCell id="4gT0J_dM45npyuXSQP9Q-101" value="&lt;font style=&quot;font-size: 14px;&quot;&gt;scanf รูปแบบเงินไม่ถูกต้อง&lt;/font&gt;" style="shape=parallelogram;perimeter=parallelogramPerimeter;whiteSpace=wrap;html=1;fixedSize=1;movable=1;resizable=1;rotatable=1;deletable=1;editable=1;locked=0;connectable=1;" parent="1" vertex="1">
          <mxGeometry x="-403.91999999999985" y="569.3" width="206.84" height="60" as="geometry" />
        </mxCell>
        <mxCell id="4gT0J_dM45npyuXSQP9Q-102" value="" style="edgeStyle=orthogonalEdgeStyle;rounded=0;orthogonalLoop=1;jettySize=auto;html=1;movable=1;resizable=1;rotatable=1;deletable=1;editable=1;locked=0;connectable=1;" parent="1" source="4gT0J_dM45npyuXSQP9Q-103" target="4gT0J_dM45npyuXSQP9Q-82" edge="1">
          <mxGeometry relative="1" as="geometry" />
        </mxCell>
        <mxCell id="4gT0J_dM45npyuXSQP9Q-103" value="" style="ellipse;whiteSpace=wrap;html=1;aspect=fixed;movable=1;resizable=1;rotatable=1;deletable=1;editable=1;locked=0;connectable=1;" parent="1" vertex="1">
          <mxGeometry x="-335.5" y="699.2999999999998" width="70" height="70" as="geometry" />
        </mxCell>
        <mxCell id="4gT0J_dM45npyuXSQP9Q-104" value="ไม่" style="text;html=1;align=center;verticalAlign=middle;resizable=1;points=[];autosize=1;strokeColor=none;fillColor=none;movable=1;rotatable=1;deletable=1;editable=1;locked=0;connectable=1;" parent="1" vertex="1">
          <mxGeometry x="-280.5" y="369.3" width="40" height="30" as="geometry" />
        </mxCell>
        <mxCell id="4gT0J_dM45npyuXSQP9Q-105" value="ไม่" style="text;html=1;align=center;verticalAlign=middle;resizable=1;points=[];autosize=1;strokeColor=none;fillColor=none;movable=1;rotatable=1;deletable=1;editable=1;locked=0;connectable=1;" parent="1" vertex="1">
          <mxGeometry x="-284.67999999999984" y="519.3" width="40" height="30" as="geometry" />
        </mxCell>
        <mxCell id="4gT0J_dM45npyuXSQP9Q-106" value="ใช้" style="text;html=1;align=center;verticalAlign=middle;resizable=1;points=[];autosize=1;strokeColor=none;fillColor=none;movable=1;rotatable=1;deletable=1;editable=1;locked=0;connectable=1;" parent="1" vertex="1">
          <mxGeometry x="-176.55999999999995" y="259.3" width="40" height="30" as="geometry" />
        </mxCell>
        <mxCell id="4gT0J_dM45npyuXSQP9Q-107" value="ใช้" style="text;html=1;align=center;verticalAlign=middle;resizable=1;points=[];autosize=1;strokeColor=none;fillColor=none;movable=1;rotatable=1;deletable=1;editable=1;locked=0;connectable=1;" parent="1" vertex="1">
          <mxGeometry x="-476.6199999999999" y="419.29999999999995" width="40" height="30" as="geometry" />
        </mxCell>
        <mxCell id="4gT0J_dM45npyuXSQP9Q-108" value="" style="edgeStyle=orthogonalEdgeStyle;rounded=0;orthogonalLoop=1;jettySize=auto;html=1;movable=1;resizable=1;rotatable=1;deletable=1;editable=1;locked=0;connectable=1;" parent="1" source="4gT0J_dM45npyuXSQP9Q-110" target="4gT0J_dM45npyuXSQP9Q-113" edge="1">
          <mxGeometry relative="1" as="geometry" />
        </mxCell>
        <mxCell id="4gT0J_dM45npyuXSQP9Q-109" value="" style="edgeStyle=orthogonalEdgeStyle;rounded=0;orthogonalLoop=1;jettySize=auto;html=1;entryX=0.5;entryY=0;entryDx=0;entryDy=0;movable=1;resizable=1;rotatable=1;deletable=1;editable=1;locked=0;connectable=1;" parent="1" source="4gT0J_dM45npyuXSQP9Q-110" target="4gT0J_dM45npyuXSQP9Q-116" edge="1">
          <mxGeometry relative="1" as="geometry" />
        </mxCell>
        <mxCell id="4gT0J_dM45npyuXSQP9Q-110" value="&lt;span style=&quot;font-family: Sarabun; text-align: left; text-wrap-mode: nowrap;&quot;&gt;&lt;font style=&quot;font-size: 12px;&quot;&gt;แบงค์ 1000 ใช้หรือไม่&lt;/font&gt;&lt;/span&gt;" style="rhombus;whiteSpace=wrap;html=1;movable=1;resizable=1;rotatable=1;deletable=1;editable=1;locked=0;connectable=1;" parent="1" vertex="1">
          <mxGeometry x="-140.31999999999994" y="329.3" width="140" height="70" as="geometry" />
        </mxCell>
        <mxCell id="4gT0J_dM45npyuXSQP9Q-111" value="ใช้" style="text;html=1;align=center;verticalAlign=middle;resizable=1;points=[];autosize=1;strokeColor=none;fillColor=none;movable=1;rotatable=1;deletable=1;editable=1;locked=0;connectable=1;" parent="1" vertex="1">
          <mxGeometry x="-120.31999999999994" y="399.29999999999995" width="40" height="30" as="geometry" />
        </mxCell>
        <mxCell id="4gT0J_dM45npyuXSQP9Q-112" style="edgeStyle=orthogonalEdgeStyle;rounded=0;orthogonalLoop=1;jettySize=auto;html=1;entryX=1;entryY=0.5;entryDx=0;entryDy=0;movable=1;resizable=1;rotatable=1;deletable=1;editable=1;locked=0;connectable=1;" parent="1" source="4gT0J_dM45npyuXSQP9Q-113" target="4gT0J_dM45npyuXSQP9Q-103" edge="1">
          <mxGeometry relative="1" as="geometry">
            <Array as="points">
              <mxPoint x="-70.31999999999994" y="734.2999999999998" />
            </Array>
          </mxGeometry>
        </mxCell>
        <mxCell id="4gT0J_dM45npyuXSQP9Q-113" value="ch1000 + 1" style="whiteSpace=wrap;html=1;movable=1;resizable=1;rotatable=1;deletable=1;editable=1;locked=0;connectable=1;" parent="1" vertex="1">
          <mxGeometry x="-130.31999999999994" y="439.3" width="120" height="60" as="geometry" />
        </mxCell>
        <mxCell id="4gT0J_dM45npyuXSQP9Q-114" value="ไม่" style="text;html=1;align=center;verticalAlign=middle;resizable=1;points=[];autosize=1;strokeColor=none;fillColor=none;movable=1;rotatable=1;deletable=1;editable=1;locked=0;connectable=1;" parent="1" vertex="1">
          <mxGeometry x="29.680000000000064" y="329.3" width="40" height="30" as="geometry" />
        </mxCell>
        <mxCell id="4gT0J_dM45npyuXSQP9Q-115" value="" style="edgeStyle=orthogonalEdgeStyle;rounded=0;orthogonalLoop=1;jettySize=auto;html=1;movable=1;resizable=1;rotatable=1;deletable=1;editable=1;locked=0;connectable=1;" parent="1" source="4gT0J_dM45npyuXSQP9Q-116" target="4gT0J_dM45npyuXSQP9Q-119" edge="1">
          <mxGeometry relative="1" as="geometry" />
        </mxCell>
        <mxCell id="4gT0J_dM45npyuXSQP9Q-116" value="&lt;span style=&quot;font-family: Sarabun; text-align: left; text-wrap-mode: nowrap;&quot;&gt;&lt;font style=&quot;font-size: 12px;&quot;&gt;แบงค์ 500 ใช้หรือไม่&lt;/font&gt;&lt;/span&gt;" style="rhombus;whiteSpace=wrap;html=1;movable=1;resizable=1;rotatable=1;deletable=1;editable=1;locked=0;connectable=1;" parent="1" vertex="1">
          <mxGeometry x="19.680000000000064" y="389.3" width="140" height="70" as="geometry" />
        </mxCell>
        <mxCell id="4gT0J_dM45npyuXSQP9Q-117" value="ใช้" style="text;html=1;align=center;verticalAlign=middle;resizable=1;points=[];autosize=1;strokeColor=none;fillColor=none;movable=1;rotatable=1;deletable=1;editable=1;locked=0;connectable=1;" parent="1" vertex="1">
          <mxGeometry x="39.680000000000064" y="459.3" width="40" height="30" as="geometry" />
        </mxCell>
        <mxCell id="4gT0J_dM45npyuXSQP9Q-118" style="edgeStyle=orthogonalEdgeStyle;rounded=0;orthogonalLoop=1;jettySize=auto;html=1;entryX=1;entryY=0.5;entryDx=0;entryDy=0;movable=1;resizable=1;rotatable=1;deletable=1;editable=1;locked=0;connectable=1;" parent="1" source="4gT0J_dM45npyuXSQP9Q-119" target="4gT0J_dM45npyuXSQP9Q-103" edge="1">
          <mxGeometry relative="1" as="geometry">
            <Array as="points">
              <mxPoint x="89.68000000000006" y="734.2999999999998" />
            </Array>
          </mxGeometry>
        </mxCell>
        <mxCell id="4gT0J_dM45npyuXSQP9Q-119" value="ch500 + 1" style="whiteSpace=wrap;html=1;movable=1;resizable=1;rotatable=1;deletable=1;editable=1;locked=0;connectable=1;" parent="1" vertex="1">
          <mxGeometry x="29.680000000000064" y="499.3" width="120" height="60" as="geometry" />
        </mxCell>
        <mxCell id="4gT0J_dM45npyuXSQP9Q-120" value="" style="edgeStyle=orthogonalEdgeStyle;rounded=0;orthogonalLoop=1;jettySize=auto;html=1;entryX=0.5;entryY=0;entryDx=0;entryDy=0;movable=1;resizable=1;rotatable=1;deletable=1;editable=1;locked=0;connectable=1;" parent="1" target="4gT0J_dM45npyuXSQP9Q-123" edge="1">
          <mxGeometry relative="1" as="geometry">
            <mxPoint x="159.68000000000006" y="424.29999999999995" as="sourcePoint" />
          </mxGeometry>
        </mxCell>
        <mxCell id="4gT0J_dM45npyuXSQP9Q-121" value="ไม่" style="text;html=1;align=center;verticalAlign=middle;resizable=1;points=[];autosize=1;strokeColor=none;fillColor=none;movable=1;rotatable=1;deletable=1;editable=1;locked=0;connectable=1;" parent="1" vertex="1">
          <mxGeometry x="189.68000000000006" y="389.3" width="40" height="30" as="geometry" />
        </mxCell>
        <mxCell id="4gT0J_dM45npyuXSQP9Q-122" value="" style="edgeStyle=orthogonalEdgeStyle;rounded=0;orthogonalLoop=1;jettySize=auto;html=1;movable=1;resizable=1;rotatable=1;deletable=1;editable=1;locked=0;connectable=1;" parent="1" source="4gT0J_dM45npyuXSQP9Q-123" target="4gT0J_dM45npyuXSQP9Q-126" edge="1">
          <mxGeometry relative="1" as="geometry" />
        </mxCell>
        <mxCell id="4gT0J_dM45npyuXSQP9Q-123" value="&lt;span style=&quot;font-family: Sarabun; text-align: left; text-wrap-mode: nowrap;&quot;&gt;&lt;font style=&quot;font-size: 12px;&quot;&gt;แบงค์ 100 ใช้หรือไม่&lt;/font&gt;&lt;/span&gt;" style="rhombus;whiteSpace=wrap;html=1;movable=1;resizable=1;rotatable=1;deletable=1;editable=1;locked=0;connectable=1;" parent="1" vertex="1">
          <mxGeometry x="179.68000000000006" y="449.3" width="140" height="70" as="geometry" />
        </mxCell>
        <mxCell id="4gT0J_dM45npyuXSQP9Q-124" value="ใช้" style="text;html=1;align=center;verticalAlign=middle;resizable=1;points=[];autosize=1;strokeColor=none;fillColor=none;movable=1;rotatable=1;deletable=1;editable=1;locked=0;connectable=1;" parent="1" vertex="1">
          <mxGeometry x="199.68000000000006" y="519.3" width="40" height="30" as="geometry" />
        </mxCell>
        <mxCell id="4gT0J_dM45npyuXSQP9Q-125" style="edgeStyle=orthogonalEdgeStyle;rounded=0;orthogonalLoop=1;jettySize=auto;html=1;entryX=1;entryY=0.5;entryDx=0;entryDy=0;movable=1;resizable=1;rotatable=1;deletable=1;editable=1;locked=0;connectable=1;" parent="1" source="4gT0J_dM45npyuXSQP9Q-126" target="4gT0J_dM45npyuXSQP9Q-103" edge="1">
          <mxGeometry relative="1" as="geometry">
            <Array as="points">
              <mxPoint x="249.68000000000006" y="734.2999999999998" />
            </Array>
          </mxGeometry>
        </mxCell>
        <mxCell id="4gT0J_dM45npyuXSQP9Q-126" value="ch100 + 1" style="whiteSpace=wrap;html=1;movable=1;resizable=1;rotatable=1;deletable=1;editable=1;locked=0;connectable=1;" parent="1" vertex="1">
          <mxGeometry x="189.68000000000006" y="559.3" width="120" height="60" as="geometry" />
        </mxCell>
        <mxCell id="4gT0J_dM45npyuXSQP9Q-127" value="" style="edgeStyle=orthogonalEdgeStyle;rounded=0;orthogonalLoop=1;jettySize=auto;html=1;entryX=0.5;entryY=0;entryDx=0;entryDy=0;movable=1;resizable=1;rotatable=1;deletable=1;editable=1;locked=0;connectable=1;" parent="1" target="4gT0J_dM45npyuXSQP9Q-130" edge="1">
          <mxGeometry relative="1" as="geometry">
            <mxPoint x="319.68000000000006" y="484.3" as="sourcePoint" />
          </mxGeometry>
        </mxCell>
        <mxCell id="4gT0J_dM45npyuXSQP9Q-128" value="ไม่" style="text;html=1;align=center;verticalAlign=middle;resizable=1;points=[];autosize=1;strokeColor=none;fillColor=none;movable=1;rotatable=1;deletable=1;editable=1;locked=0;connectable=1;" parent="1" vertex="1">
          <mxGeometry x="349.68000000000006" y="449.3" width="40" height="30" as="geometry" />
        </mxCell>
        <mxCell id="4gT0J_dM45npyuXSQP9Q-129" value="" style="edgeStyle=orthogonalEdgeStyle;rounded=0;orthogonalLoop=1;jettySize=auto;html=1;movable=1;resizable=1;rotatable=1;deletable=1;editable=1;locked=0;connectable=1;" parent="1" source="4gT0J_dM45npyuXSQP9Q-130" target="4gT0J_dM45npyuXSQP9Q-133" edge="1">
          <mxGeometry relative="1" as="geometry" />
        </mxCell>
        <mxCell id="4gT0J_dM45npyuXSQP9Q-130" value="&lt;span style=&quot;font-family: Sarabun; text-align: left; text-wrap-mode: nowrap;&quot;&gt;&lt;font style=&quot;font-size: 12px;&quot;&gt;แบงค์ 50 ใช้หรือไม่&lt;/font&gt;&lt;/span&gt;" style="rhombus;whiteSpace=wrap;html=1;movable=1;resizable=1;rotatable=1;deletable=1;editable=1;locked=0;connectable=1;" parent="1" vertex="1">
          <mxGeometry x="339.68000000000006" y="509.3" width="140" height="70" as="geometry" />
        </mxCell>
        <mxCell id="4gT0J_dM45npyuXSQP9Q-131" value="ใช้" style="text;html=1;align=center;verticalAlign=middle;resizable=1;points=[];autosize=1;strokeColor=none;fillColor=none;movable=1;rotatable=1;deletable=1;editable=1;locked=0;connectable=1;" parent="1" vertex="1">
          <mxGeometry x="359.68000000000006" y="579.3" width="40" height="30" as="geometry" />
        </mxCell>
        <mxCell id="4gT0J_dM45npyuXSQP9Q-132" style="edgeStyle=orthogonalEdgeStyle;rounded=0;orthogonalLoop=1;jettySize=auto;html=1;entryX=1;entryY=0.5;entryDx=0;entryDy=0;movable=1;resizable=1;rotatable=1;deletable=1;editable=1;locked=0;connectable=1;" parent="1" source="4gT0J_dM45npyuXSQP9Q-133" target="4gT0J_dM45npyuXSQP9Q-103" edge="1">
          <mxGeometry relative="1" as="geometry">
            <Array as="points">
              <mxPoint x="409.68000000000006" y="734.2999999999998" />
            </Array>
          </mxGeometry>
        </mxCell>
        <mxCell id="4gT0J_dM45npyuXSQP9Q-133" value="ch50 + 1" style="whiteSpace=wrap;html=1;movable=1;resizable=1;rotatable=1;deletable=1;editable=1;locked=0;connectable=1;" parent="1" vertex="1">
          <mxGeometry x="349.68000000000006" y="619.3" width="120" height="60" as="geometry" />
        </mxCell>
        <mxCell id="4gT0J_dM45npyuXSQP9Q-134" value="" style="edgeStyle=orthogonalEdgeStyle;rounded=0;orthogonalLoop=1;jettySize=auto;html=1;entryX=0.5;entryY=0;entryDx=0;entryDy=0;movable=1;resizable=1;rotatable=1;deletable=1;editable=1;locked=0;connectable=1;" parent="1" target="4gT0J_dM45npyuXSQP9Q-137" edge="1">
          <mxGeometry relative="1" as="geometry">
            <mxPoint x="479.68000000000006" y="544.3" as="sourcePoint" />
            <mxPoint x="569.6800000000003" y="569.3" as="targetPoint" />
          </mxGeometry>
        </mxCell>
        <mxCell id="4gT0J_dM45npyuXSQP9Q-135" value="ไม่" style="text;html=1;align=center;verticalAlign=middle;resizable=1;points=[];autosize=1;strokeColor=none;fillColor=none;movable=1;rotatable=1;deletable=1;editable=1;locked=0;connectable=1;" parent="1" vertex="1">
          <mxGeometry x="509.6800000000003" y="509.3" width="40" height="30" as="geometry" />
        </mxCell>
        <mxCell id="4gT0J_dM45npyuXSQP9Q-136" style="edgeStyle=orthogonalEdgeStyle;rounded=0;orthogonalLoop=1;jettySize=auto;html=1;entryX=1;entryY=0.5;entryDx=0;entryDy=0;movable=1;resizable=1;rotatable=1;deletable=1;editable=1;locked=0;connectable=1;" parent="1" source="4gT0J_dM45npyuXSQP9Q-137" target="4gT0J_dM45npyuXSQP9Q-103" edge="1">
          <mxGeometry relative="1" as="geometry">
            <Array as="points">
              <mxPoint x="569.6800000000003" y="734.2999999999998" />
            </Array>
          </mxGeometry>
        </mxCell>
        <mxCell id="4gT0J_dM45npyuXSQP9Q-137" value="ch20 + 1" style="whiteSpace=wrap;html=1;movable=1;resizable=1;rotatable=1;deletable=1;editable=1;locked=0;connectable=1;" parent="1" vertex="1">
          <mxGeometry x="509.6800000000003" y="584.3" width="120" height="60" as="geometry" />
        </mxCell>
        <mxCell id="4gT0J_dM45npyuXSQP9Q-138" value="" style="edgeStyle=orthogonalEdgeStyle;rounded=0;orthogonalLoop=1;jettySize=auto;html=1;movable=1;resizable=1;rotatable=1;deletable=1;editable=1;locked=0;connectable=1;" parent="1" source="4gT0J_dM45npyuXSQP9Q-139" target="4gT0J_dM45npyuXSQP9Q-142" edge="1">
          <mxGeometry relative="1" as="geometry" />
        </mxCell>
        <mxCell id="4gT0J_dM45npyuXSQP9Q-139" value="&lt;span style=&quot;font-family: Sarabun; text-align: left; text-wrap-mode: nowrap;&quot;&gt;&lt;font style=&quot;font-size: 12px;&quot;&gt;เหรียญ 10 ใช้หรือไม่&lt;/font&gt;&lt;/span&gt;" style="rhombus;whiteSpace=wrap;html=1;movable=1;resizable=1;rotatable=1;deletable=1;editable=1;locked=0;connectable=1;" parent="1" vertex="1">
          <mxGeometry x="-585.1599999999999" y="479.3" width="140" height="70" as="geometry" />
        </mxCell>
        <mxCell id="4gT0J_dM45npyuXSQP9Q-140" value="ใช้" style="text;html=1;align=center;verticalAlign=middle;resizable=1;points=[];autosize=1;strokeColor=none;fillColor=none;movable=1;rotatable=1;deletable=1;editable=1;locked=0;connectable=1;" parent="1" vertex="1">
          <mxGeometry x="-565.16" y="549.3" width="40" height="30" as="geometry" />
        </mxCell>
        <mxCell id="4gT0J_dM45npyuXSQP9Q-141" style="edgeStyle=orthogonalEdgeStyle;rounded=0;orthogonalLoop=1;jettySize=auto;html=1;entryX=0;entryY=0.5;entryDx=0;entryDy=0;movable=1;resizable=1;rotatable=1;deletable=1;editable=1;locked=0;connectable=1;" parent="1" source="4gT0J_dM45npyuXSQP9Q-142" target="4gT0J_dM45npyuXSQP9Q-103" edge="1">
          <mxGeometry relative="1" as="geometry">
            <Array as="points">
              <mxPoint x="-515.3199999999999" y="734.2999999999998" />
            </Array>
          </mxGeometry>
        </mxCell>
        <mxCell id="4gT0J_dM45npyuXSQP9Q-142" value="&lt;span style=&quot;font-family: Sarabun; text-align: left; text-wrap-mode: nowrap;&quot;&gt;cn10&amp;nbsp;&lt;/span&gt;+ 1" style="whiteSpace=wrap;html=1;movable=1;resizable=1;rotatable=1;deletable=1;editable=1;locked=0;connectable=1;" parent="1" vertex="1">
          <mxGeometry x="-575.1599999999999" y="589.3" width="120" height="60" as="geometry" />
        </mxCell>
        <mxCell id="4gT0J_dM45npyuXSQP9Q-143" value="ไม่" style="text;html=1;align=center;verticalAlign=middle;resizable=1;points=[];autosize=1;strokeColor=none;fillColor=none;movable=1;rotatable=1;deletable=1;editable=1;locked=0;connectable=1;" parent="1" vertex="1">
          <mxGeometry x="-640.3199999999999" y="479.3" width="40" height="30" as="geometry" />
        </mxCell>
        <mxCell id="4gT0J_dM45npyuXSQP9Q-144" style="edgeStyle=orthogonalEdgeStyle;rounded=0;orthogonalLoop=1;jettySize=auto;html=1;entryX=0.5;entryY=0;entryDx=0;entryDy=0;movable=1;resizable=1;rotatable=1;deletable=1;editable=1;locked=0;connectable=1;" parent="1" target="4gT0J_dM45npyuXSQP9Q-146" edge="1">
          <mxGeometry relative="1" as="geometry">
            <mxPoint x="-585.1599999999999" y="514.3" as="sourcePoint" />
          </mxGeometry>
        </mxCell>
        <mxCell id="4gT0J_dM45npyuXSQP9Q-145" value="" style="edgeStyle=orthogonalEdgeStyle;rounded=0;orthogonalLoop=1;jettySize=auto;html=1;movable=1;resizable=1;rotatable=1;deletable=1;editable=1;locked=0;connectable=1;" parent="1" source="4gT0J_dM45npyuXSQP9Q-146" target="4gT0J_dM45npyuXSQP9Q-149" edge="1">
          <mxGeometry relative="1" as="geometry" />
        </mxCell>
        <mxCell id="4gT0J_dM45npyuXSQP9Q-146" value="&lt;span style=&quot;font-family: Sarabun; text-align: left; text-wrap-mode: nowrap;&quot;&gt;&lt;font style=&quot;font-size: 12px;&quot;&gt;เหรียญ 5 ใช้หรือไม่&lt;/font&gt;&lt;/span&gt;" style="rhombus;whiteSpace=wrap;html=1;movable=1;resizable=1;rotatable=1;deletable=1;editable=1;locked=0;connectable=1;" parent="1" vertex="1">
          <mxGeometry x="-770" y="534.3" width="140" height="70" as="geometry" />
        </mxCell>
        <mxCell id="4gT0J_dM45npyuXSQP9Q-147" value="ใช้" style="text;html=1;align=center;verticalAlign=middle;resizable=1;points=[];autosize=1;strokeColor=none;fillColor=none;movable=1;rotatable=1;deletable=1;editable=1;locked=0;connectable=1;" parent="1" vertex="1">
          <mxGeometry x="-750" y="604.3" width="40" height="30" as="geometry" />
        </mxCell>
        <mxCell id="4gT0J_dM45npyuXSQP9Q-148" style="edgeStyle=orthogonalEdgeStyle;rounded=0;orthogonalLoop=1;jettySize=auto;html=1;entryX=0;entryY=0.5;entryDx=0;entryDy=0;movable=1;resizable=1;rotatable=1;deletable=1;editable=1;locked=0;connectable=1;" parent="1" source="4gT0J_dM45npyuXSQP9Q-149" target="4gT0J_dM45npyuXSQP9Q-103" edge="1">
          <mxGeometry relative="1" as="geometry">
            <Array as="points">
              <mxPoint x="-700.3199999999999" y="734.2999999999998" />
            </Array>
          </mxGeometry>
        </mxCell>
        <mxCell id="4gT0J_dM45npyuXSQP9Q-149" value="&lt;span style=&quot;font-family: Sarabun; text-align: left; text-wrap-mode: nowrap;&quot;&gt;cn5&amp;nbsp;&lt;/span&gt;+ 1" style="whiteSpace=wrap;html=1;movable=1;resizable=1;rotatable=1;deletable=1;editable=1;locked=0;connectable=1;" parent="1" vertex="1">
          <mxGeometry x="-760" y="644.2999999999998" width="120" height="60" as="geometry" />
        </mxCell>
        <mxCell id="4gT0J_dM45npyuXSQP9Q-150" value="ไม่" style="text;html=1;align=center;verticalAlign=middle;resizable=1;points=[];autosize=1;strokeColor=none;fillColor=none;movable=1;rotatable=1;deletable=1;editable=1;locked=0;connectable=1;" parent="1" vertex="1">
          <mxGeometry x="-825.1599999999999" y="534.3" width="40" height="30" as="geometry" />
        </mxCell>
        <mxCell id="4gT0J_dM45npyuXSQP9Q-151" style="edgeStyle=orthogonalEdgeStyle;rounded=0;orthogonalLoop=1;jettySize=auto;html=1;entryX=0.5;entryY=0;entryDx=0;entryDy=0;movable=1;resizable=1;rotatable=1;deletable=1;editable=1;locked=0;connectable=1;" parent="1" target="4gT0J_dM45npyuXSQP9Q-160" edge="1">
          <mxGeometry relative="1" as="geometry">
            <mxPoint x="-770" y="569.3" as="sourcePoint" />
            <mxPoint x="-884.8399999999999" y="589.3000000000001" as="targetPoint" />
          </mxGeometry>
        </mxCell>
        <mxCell id="4gT0J_dM45npyuXSQP9Q-159" style="edgeStyle=orthogonalEdgeStyle;rounded=0;orthogonalLoop=1;jettySize=auto;html=1;entryX=0;entryY=0.5;entryDx=0;entryDy=0;movable=1;resizable=1;rotatable=1;deletable=1;editable=1;locked=0;connectable=1;" parent="1" source="4gT0J_dM45npyuXSQP9Q-160" target="4gT0J_dM45npyuXSQP9Q-103" edge="1">
          <mxGeometry relative="1" as="geometry">
            <Array as="points">
              <mxPoint x="-885" y="734.17" />
            </Array>
          </mxGeometry>
        </mxCell>
        <mxCell id="4gT0J_dM45npyuXSQP9Q-160" value="&lt;span style=&quot;font-family: Sarabun; text-align: left; text-wrap-mode: nowrap;&quot;&gt;cn1&amp;nbsp;&lt;/span&gt;+ 1" style="whiteSpace=wrap;html=1;movable=1;resizable=1;rotatable=1;deletable=1;editable=1;locked=0;connectable=1;" parent="1" vertex="1">
          <mxGeometry x="-945.1600000000001" y="599.1699999999998" width="120" height="60" as="geometry" />
        </mxCell>
        <mxCell id="4gT0J_dM45npyuXSQP9Q-161" value="ใช้" style="text;html=1;align=center;verticalAlign=middle;resizable=1;points=[];autosize=1;strokeColor=none;fillColor=none;movable=1;rotatable=1;deletable=1;editable=1;locked=0;connectable=1;" parent="1" vertex="1">
          <mxGeometry x="-285.99999999999983" y="979.1699999999997" width="40" height="30" as="geometry" />
        </mxCell>
        <mxCell id="4gT0J_dM45npyuXSQP9Q-162" value="ไม่" style="text;html=1;align=center;verticalAlign=middle;resizable=1;points=[];autosize=1;strokeColor=none;fillColor=none;movable=1;rotatable=1;deletable=1;editable=1;locked=0;connectable=1;" parent="1" vertex="1">
          <mxGeometry x="-418.99" y="809.1699999999997" width="40" height="30" as="geometry" />
        </mxCell>
        <mxCell id="4gT0J_dM45npyuXSQP9Q-373" value="" style="edgeStyle=orthogonalEdgeStyle;rounded=0;orthogonalLoop=1;jettySize=auto;html=1;movable=1;resizable=1;rotatable=1;deletable=1;editable=1;locked=0;connectable=1;" parent="1" source="4gT0J_dM45npyuXSQP9Q-166" target="4gT0J_dM45npyuXSQP9Q-93" edge="1">
          <mxGeometry relative="1" as="geometry" />
        </mxCell>
        <mxCell id="4gT0J_dM45npyuXSQP9Q-166" value="เริ่มต้น" style="ellipse;whiteSpace=wrap;html=1;movable=1;resizable=1;rotatable=1;deletable=1;editable=1;locked=0;connectable=1;" parent="1" vertex="1">
          <mxGeometry x="-360" y="-52.19999999999989" width="120" height="45" as="geometry" />
        </mxCell>
        <mxCell id="4gT0J_dM45npyuXSQP9Q-214" value="" style="edgeStyle=orthogonalEdgeStyle;rounded=0;orthogonalLoop=1;jettySize=auto;html=1;" parent="1" source="4gT0J_dM45npyuXSQP9Q-167" target="4gT0J_dM45npyuXSQP9Q-169" edge="1">
          <mxGeometry relative="1" as="geometry" />
        </mxCell>
        <mxCell id="4gT0J_dM45npyuXSQP9Q-167" value="&lt;div&gt;&lt;span style=&quot;font-size: 14px;&quot;&gt;int total = 0 ,&amp;nbsp;&lt;/span&gt;&lt;span style=&quot;font-size: 14px; background-color: transparent; color: light-dark(rgb(0, 0, 0), rgb(255, 255, 255));&quot;&gt;int&lt;/span&gt;&lt;span style=&quot;background-color: transparent; color: light-dark(rgb(0, 0, 0), rgb(255, 255, 255)); font-size: 14px;&quot;&gt;&amp;nbsp;&lt;/span&gt;&lt;span style=&quot;background-color: transparent; color: light-dark(rgb(0, 0, 0), rgb(255, 255, 255)); font-size: 14px;&quot;&gt;money&amp;nbsp;&lt;/span&gt;&lt;span style=&quot;background-color: transparent; color: light-dark(rgb(0, 0, 0), rgb(255, 255, 255)); font-size: 14px;&quot;&gt;= 0 ,&amp;nbsp;&lt;/span&gt;&lt;span style=&quot;font-size: 14px; background-color: transparent; color: light-dark(rgb(0, 0, 0), rgb(255, 255, 255));&quot;&gt;int&amp;nbsp;&lt;/span&gt;&lt;span style=&quot;background-color: transparent; color: light-dark(rgb(0, 0, 0), rgb(255, 255, 255)); font-size: 14px;&quot;&gt;change&amp;nbsp;&lt;/span&gt;&lt;span style=&quot;background-color: transparent; color: light-dark(rgb(0, 0, 0), rgb(255, 255, 255)); font-size: 14px;&quot;&gt;= 0&lt;/span&gt;&lt;/div&gt;" style="whiteSpace=wrap;html=1;" parent="1" vertex="1">
          <mxGeometry x="1054.5" y="130.83" width="290" height="50" as="geometry" />
        </mxCell>
        <mxCell id="4gT0J_dM45npyuXSQP9Q-215" value="" style="edgeStyle=orthogonalEdgeStyle;rounded=0;orthogonalLoop=1;jettySize=auto;html=1;" parent="1" source="4gT0J_dM45npyuXSQP9Q-169" target="4gT0J_dM45npyuXSQP9Q-171" edge="1">
          <mxGeometry relative="1" as="geometry" />
        </mxCell>
        <mxCell id="4gT0J_dM45npyuXSQP9Q-169" value="&lt;div&gt;&lt;span style=&quot;font-size: 14px; background-color: transparent; color: light-dark(rgb(0, 0, 0), rgb(255, 255, 255));&quot;&gt;int&amp;nbsp;&lt;/span&gt;&lt;span style=&quot;font-size: 14px; background-color: transparent; color: light-dark(rgb(0, 0, 0), rgb(255, 255, 255));&quot;&gt;ch1000 = 1&lt;/span&gt;&lt;/div&gt;&lt;div&gt;&lt;span style=&quot;font-size: 14px; background-color: transparent; color: light-dark(rgb(0, 0, 0), rgb(255, 255, 255));&quot;&gt;int&amp;nbsp;&lt;/span&gt;&lt;span style=&quot;font-size: 14px; background-color: transparent; color: light-dark(rgb(0, 0, 0), rgb(255, 255, 255));&quot;&gt;ch&lt;/span&gt;&lt;span style=&quot;font-size: 14px;&quot;&gt;500 = 1&lt;/span&gt;&lt;span style=&quot;font-size: 14px; background-color: transparent; color: light-dark(rgb(0, 0, 0), rgb(255, 255, 255));&quot;&gt;&lt;/span&gt;&lt;/div&gt;&lt;div&gt;&lt;span style=&quot;font-size: 14px; background-color: transparent; color: light-dark(rgb(0, 0, 0), rgb(255, 255, 255));&quot;&gt;int&amp;nbsp;&lt;/span&gt;&lt;span style=&quot;font-size: 14px; background-color: transparent; color: light-dark(rgb(0, 0, 0), rgb(255, 255, 255));&quot;&gt;ch&lt;/span&gt;&lt;span style=&quot;font-size: 14px;&quot;&gt;100 = 3&lt;/span&gt;&lt;span style=&quot;font-size: 14px;&quot;&gt;&lt;/span&gt;&lt;/div&gt;&lt;div&gt;&lt;span style=&quot;font-size: 14px; background-color: transparent; color: light-dark(rgb(0, 0, 0), rgb(255, 255, 255));&quot;&gt;int&amp;nbsp;&lt;/span&gt;&lt;span style=&quot;font-size: 14px; background-color: transparent; color: light-dark(rgb(0, 0, 0), rgb(255, 255, 255));&quot;&gt;ch&lt;/span&gt;&lt;span style=&quot;font-size: 14px;&quot;&gt;50 = 8&lt;/span&gt;&lt;span style=&quot;font-size: 14px;&quot;&gt;&lt;/span&gt;&lt;/div&gt;&lt;div&gt;&lt;span style=&quot;font-size: 14px; background-color: transparent; color: light-dark(rgb(0, 0, 0), rgb(255, 255, 255));&quot;&gt;int&amp;nbsp;&lt;/span&gt;&lt;span style=&quot;font-size: 14px; background-color: transparent; color: light-dark(rgb(0, 0, 0), rgb(255, 255, 255));&quot;&gt;ch&lt;/span&gt;&lt;span style=&quot;font-size: 14px;&quot;&gt;20 = 15&lt;/span&gt;&lt;/div&gt;" style="whiteSpace=wrap;html=1;" parent="1" vertex="1">
          <mxGeometry x="1126.08" y="215" width="150" height="105" as="geometry" />
        </mxCell>
        <mxCell id="4gT0J_dM45npyuXSQP9Q-216" value="" style="edgeStyle=orthogonalEdgeStyle;rounded=0;orthogonalLoop=1;jettySize=auto;html=1;" parent="1" source="4gT0J_dM45npyuXSQP9Q-171" target="4gT0J_dM45npyuXSQP9Q-173" edge="1">
          <mxGeometry relative="1" as="geometry" />
        </mxCell>
        <mxCell id="4gT0J_dM45npyuXSQP9Q-171" value="&lt;div&gt;&lt;span style=&quot;font-size: 14px; background-color: transparent; color: light-dark(rgb(0, 0, 0), rgb(255, 255, 255));&quot;&gt;int&amp;nbsp;&lt;/span&gt;&lt;span style=&quot;font-size: 14px;&quot;&gt;cn10 = 200&lt;/span&gt;&lt;/div&gt;&lt;div&gt;&lt;span style=&quot;font-size: 14px; background-color: transparent; color: light-dark(rgb(0, 0, 0), rgb(255, 255, 255));&quot;&gt;int&amp;nbsp;&lt;/span&gt;&lt;span style=&quot;font-size: 14px;&quot;&gt;cn5 = 500&lt;/span&gt;&lt;span style=&quot;font-size: 14px;&quot;&gt;&lt;/span&gt;&lt;/div&gt;&lt;div&gt;&lt;span style=&quot;font-size: 14px; background-color: transparent; color: light-dark(rgb(0, 0, 0), rgb(255, 255, 255));&quot;&gt;int&amp;nbsp;&lt;/span&gt;&lt;span style=&quot;font-size: 14px;&quot;&gt;cn1 = 1000&lt;/span&gt;&lt;/div&gt;" style="whiteSpace=wrap;html=1;" parent="1" vertex="1">
          <mxGeometry x="1141.08" y="350" width="120" height="60" as="geometry" />
        </mxCell>
        <mxCell id="4gT0J_dM45npyuXSQP9Q-217" value="" style="edgeStyle=orthogonalEdgeStyle;rounded=0;orthogonalLoop=1;jettySize=auto;html=1;entryX=0.5;entryY=0;entryDx=0;entryDy=0;" parent="1" source="4gT0J_dM45npyuXSQP9Q-173" target="4gT0J_dM45npyuXSQP9Q-210" edge="1">
          <mxGeometry relative="1" as="geometry">
            <mxPoint x="1201.1428571428569" y="620" as="targetPoint" />
          </mxGeometry>
        </mxCell>
        <mxCell id="4gT0J_dM45npyuXSQP9Q-173" value="&lt;div&gt;&lt;span style=&quot;font-size: 14px;&quot;&gt;&amp;nbsp;int coke = 5&lt;/span&gt;&lt;/div&gt;&lt;div&gt;&lt;span style=&quot;font-size: 14px;&quot;&gt;int greenwater = 3&lt;/span&gt;&lt;/div&gt;&lt;div&gt;&lt;span style=&quot;font-size: 14px;&quot;&gt;int amaricano = 6&lt;/span&gt;&lt;/div&gt;&lt;div&gt;&lt;span style=&quot;font-size: 14px;&quot;&gt;int latte = 1&lt;/span&gt;&lt;/div&gt;&lt;div&gt;&lt;span style=&quot;font-size: 14px;&quot;&gt;int sunseed = 9&lt;/span&gt;&lt;/div&gt;&lt;div&gt;&lt;span style=&quot;font-size: 14px; background-color: transparent; color: light-dark(rgb(0, 0, 0), rgb(255, 255, 255));&quot;&gt;&amp;nbsp;int papbean = 5&lt;/span&gt;&lt;/div&gt;&lt;div&gt;&lt;span style=&quot;font-size: 14px; background-color: transparent; color: light-dark(rgb(0, 0, 0), rgb(255, 255, 255));&quot;&gt;int sourpork = 6&lt;/span&gt;&lt;/div&gt;" style="whiteSpace=wrap;html=1;" parent="1" vertex="1">
          <mxGeometry x="1121.08" y="440" width="160" height="150" as="geometry" />
        </mxCell>
        <mxCell id="4gT0J_dM45npyuXSQP9Q-177" value="จบการทำงาน" style="ellipse;whiteSpace=wrap;html=1;movable=1;resizable=1;rotatable=1;deletable=1;editable=1;locked=0;connectable=1;" parent="1" vertex="1">
          <mxGeometry x="-356" y="1150" width="110" height="50" as="geometry" />
        </mxCell>
        <mxCell id="4gT0J_dM45npyuXSQP9Q-212" style="edgeStyle=orthogonalEdgeStyle;rounded=0;orthogonalLoop=1;jettySize=auto;html=1;entryX=1;entryY=0.5;entryDx=0;entryDy=0;" parent="1" source="4gT0J_dM45npyuXSQP9Q-182" target="4gT0J_dM45npyuXSQP9Q-210" edge="1">
          <mxGeometry relative="1" as="geometry" />
        </mxCell>
        <mxCell id="4gT0J_dM45npyuXSQP9Q-182" value="&lt;span style=&quot;font-size: 18px;&quot;&gt;Function แสดงรายการ&lt;/span&gt;&lt;div&gt;&lt;font style=&quot;font-size: 18px;&quot;&gt;&lt;br&gt;&lt;/font&gt;&lt;/div&gt;&lt;div&gt;&lt;font style=&quot;font-size: 18px;&quot;&gt;&lt;br&gt;&lt;/font&gt;&lt;/div&gt;&lt;div&gt;&lt;font style=&quot;font-size: 18px;&quot;&gt;&lt;br&gt;&lt;/font&gt;&lt;/div&gt;&lt;div&gt;&lt;font style=&quot;font-size: 18px;&quot;&gt;&lt;br&gt;&lt;/font&gt;&lt;/div&gt;&lt;div&gt;&lt;font style=&quot;font-size: 18px;&quot;&gt;&lt;br&gt;&lt;/font&gt;&lt;/div&gt;&lt;div&gt;&lt;font style=&quot;font-size: 18px;&quot;&gt;&lt;br&gt;&lt;/font&gt;&lt;/div&gt;&lt;div&gt;&lt;font style=&quot;font-size: 18px;&quot;&gt;&lt;br&gt;&lt;/font&gt;&lt;/div&gt;&lt;div&gt;&lt;font style=&quot;font-size: 18px;&quot;&gt;&lt;br&gt;&lt;/font&gt;&lt;/div&gt;&lt;div&gt;&lt;font style=&quot;font-size: 18px;&quot;&gt;&lt;br&gt;&lt;/font&gt;&lt;/div&gt;&lt;div&gt;&lt;font style=&quot;font-size: 18px;&quot;&gt;&lt;br&gt;&lt;/font&gt;&lt;/div&gt;&lt;div&gt;&lt;font style=&quot;font-size: 18px;&quot;&gt;&lt;br&gt;&lt;/font&gt;&lt;/div&gt;&lt;div&gt;&lt;font style=&quot;font-size: 18px;&quot;&gt;&lt;br&gt;&lt;/font&gt;&lt;/div&gt;&lt;div&gt;&lt;font style=&quot;font-size: 18px;&quot;&gt;&lt;br&gt;&lt;/font&gt;&lt;/div&gt;&lt;div&gt;&lt;font style=&quot;font-size: 18px;&quot;&gt;&lt;br&gt;&lt;/font&gt;&lt;/div&gt;&lt;div&gt;&lt;font style=&quot;font-size: 18px;&quot;&gt;&lt;br&gt;&lt;/font&gt;&lt;/div&gt;&lt;div&gt;&lt;font style=&quot;font-size: 18px;&quot;&gt;&lt;br&gt;&lt;/font&gt;&lt;/div&gt;&lt;div&gt;&lt;font style=&quot;font-size: 18px;&quot;&gt;&lt;br&gt;&lt;/font&gt;&lt;/div&gt;&lt;div&gt;&lt;font style=&quot;font-size: 18px;&quot;&gt;&lt;br&gt;&lt;/font&gt;&lt;/div&gt;&lt;div&gt;&lt;font style=&quot;font-size: 18px;&quot;&gt;&lt;br&gt;&lt;/font&gt;&lt;/div&gt;&lt;div&gt;&lt;font style=&quot;font-size: 18px;&quot;&gt;&lt;br&gt;&lt;/font&gt;&lt;/div&gt;&lt;div&gt;&lt;font style=&quot;font-size: 18px;&quot;&gt;&lt;br&gt;&lt;/font&gt;&lt;/div&gt;&lt;div&gt;&lt;font style=&quot;font-size: 18px;&quot;&gt;&lt;br&gt;&lt;/font&gt;&lt;/div&gt;&lt;div&gt;&lt;font style=&quot;font-size: 18px;&quot;&gt;&lt;br&gt;&lt;/font&gt;&lt;/div&gt;&lt;div&gt;&lt;font style=&quot;font-size: 18px;&quot;&gt;&lt;br&gt;&lt;/font&gt;&lt;/div&gt;&lt;div&gt;&lt;font style=&quot;font-size: 18px;&quot;&gt;&lt;br&gt;&lt;/font&gt;&lt;/div&gt;&lt;div&gt;&lt;font style=&quot;font-size: 18px;&quot;&gt;&lt;br&gt;&lt;/font&gt;&lt;/div&gt;&lt;div&gt;&lt;font style=&quot;font-size: 18px;&quot;&gt;&lt;br&gt;&lt;/font&gt;&lt;/div&gt;&lt;div&gt;&lt;font style=&quot;font-size: 18px;&quot;&gt;&lt;br&gt;&lt;/font&gt;&lt;/div&gt;&lt;div&gt;&lt;br&gt;&lt;/div&gt;" style="rounded=0;whiteSpace=wrap;html=1;movable=0;resizable=0;rotatable=0;deletable=0;editable=0;locked=1;connectable=0;" parent="1" vertex="1">
          <mxGeometry x="1759.6799999999998" y="-344.17" width="420" height="665" as="geometry" />
        </mxCell>
        <mxCell id="4gT0J_dM45npyuXSQP9Q-197" value="" style="edgeStyle=orthogonalEdgeStyle;rounded=0;orthogonalLoop=1;jettySize=auto;html=1;movable=0;resizable=0;rotatable=0;deletable=0;editable=0;locked=1;connectable=0;" parent="1" source="4gT0J_dM45npyuXSQP9Q-184" target="4gT0J_dM45npyuXSQP9Q-196" edge="1">
          <mxGeometry relative="1" as="geometry" />
        </mxCell>
        <mxCell id="4gT0J_dM45npyuXSQP9Q-184" value="เริ่มต้น" style="ellipse;whiteSpace=wrap;html=1;movable=0;resizable=0;rotatable=0;deletable=0;editable=0;locked=1;connectable=0;" parent="1" vertex="1">
          <mxGeometry x="1910" y="-299.17" width="120" height="55" as="geometry" />
        </mxCell>
        <mxCell id="4gT0J_dM45npyuXSQP9Q-195" value="จบการทำงาน" style="ellipse;whiteSpace=wrap;html=1;movable=0;resizable=0;rotatable=0;deletable=0;editable=0;locked=1;connectable=0;" parent="1" vertex="1">
          <mxGeometry x="1915" y="250.82999999999998" width="110" height="50" as="geometry" />
        </mxCell>
        <mxCell id="4gT0J_dM45npyuXSQP9Q-199" value="" style="edgeStyle=orthogonalEdgeStyle;rounded=0;orthogonalLoop=1;jettySize=auto;html=1;movable=0;resizable=0;rotatable=0;deletable=0;editable=0;locked=1;connectable=0;" parent="1" source="4gT0J_dM45npyuXSQP9Q-196" target="4gT0J_dM45npyuXSQP9Q-198" edge="1">
          <mxGeometry relative="1" as="geometry" />
        </mxCell>
        <mxCell id="4gT0J_dM45npyuXSQP9Q-196" value="รายการสินค้า" style="shape=parallelogram;perimeter=parallelogramPerimeter;whiteSpace=wrap;html=1;fixedSize=1;movable=0;resizable=0;rotatable=0;deletable=0;editable=0;locked=1;connectable=0;" parent="1" vertex="1">
          <mxGeometry x="1910" y="-209.17000000000002" width="120" height="30" as="geometry" />
        </mxCell>
        <mxCell id="4gT0J_dM45npyuXSQP9Q-201" value="" style="edgeStyle=orthogonalEdgeStyle;rounded=0;orthogonalLoop=1;jettySize=auto;html=1;movable=0;resizable=0;rotatable=0;deletable=0;editable=0;locked=1;connectable=0;" parent="1" source="4gT0J_dM45npyuXSQP9Q-198" target="4gT0J_dM45npyuXSQP9Q-200" edge="1">
          <mxGeometry relative="1" as="geometry" />
        </mxCell>
        <mxCell id="4gT0J_dM45npyuXSQP9Q-198" value="---------------------------------" style="shape=parallelogram;perimeter=parallelogramPerimeter;whiteSpace=wrap;html=1;fixedSize=1;movable=0;resizable=0;rotatable=0;deletable=0;editable=0;locked=1;connectable=0;" parent="1" vertex="1">
          <mxGeometry x="1850" y="-159.17000000000002" width="240" height="35" as="geometry" />
        </mxCell>
        <mxCell id="4gT0J_dM45npyuXSQP9Q-203" value="" style="edgeStyle=orthogonalEdgeStyle;rounded=0;orthogonalLoop=1;jettySize=auto;html=1;movable=0;resizable=0;rotatable=0;deletable=0;editable=0;locked=1;connectable=0;" parent="1" source="4gT0J_dM45npyuXSQP9Q-200" target="4gT0J_dM45npyuXSQP9Q-202" edge="1">
          <mxGeometry relative="1" as="geometry" />
        </mxCell>
        <mxCell id="4gT0J_dM45npyuXSQP9Q-200" value="&lt;font style=&quot;font-size: 12px;&quot;&gt;ประเภทน้ำ :&lt;/font&gt;" style="shape=parallelogram;perimeter=parallelogramPerimeter;whiteSpace=wrap;html=1;fixedSize=1;movable=0;resizable=0;rotatable=0;deletable=0;editable=0;locked=1;connectable=0;" parent="1" vertex="1">
          <mxGeometry x="1910" y="-106.67" width="120" height="27.5" as="geometry" />
        </mxCell>
        <mxCell id="4gT0J_dM45npyuXSQP9Q-205" value="" style="edgeStyle=orthogonalEdgeStyle;rounded=0;orthogonalLoop=1;jettySize=auto;html=1;movable=0;resizable=0;rotatable=0;deletable=0;editable=0;locked=1;connectable=0;" parent="1" source="4gT0J_dM45npyuXSQP9Q-202" target="4gT0J_dM45npyuXSQP9Q-204" edge="1">
          <mxGeometry relative="1" as="geometry" />
        </mxCell>
        <mxCell id="4gT0J_dM45npyuXSQP9Q-202" value="&lt;div style=&quot;text-align: left;&quot;&gt;&lt;font size=&quot;3&quot;&gt;โค้ก&amp;nbsp;&lt;/font&gt;&lt;span style=&quot;background-color: transparent;&quot;&gt;&lt;font size=&quot;3&quot;&gt;กระป๋องละ&amp;nbsp; &amp;nbsp; &amp;nbsp; &amp;nbsp;&amp;nbsp;&lt;/font&gt;&lt;/span&gt;&lt;span style=&quot;font-size: medium; background-color: transparent; color: light-dark(rgb(0, 0, 0), rgb(255, 255, 255));&quot;&gt;10 บาท&lt;/span&gt;&lt;/div&gt;&lt;div style=&quot;text-align: left;&quot;&gt;&lt;font size=&quot;3&quot;&gt;น้ำเขียว&amp;nbsp;&lt;/font&gt;&lt;span style=&quot;background-color: transparent;&quot;&gt;&lt;font size=&quot;3&quot;&gt;กระป๋องละ&lt;/font&gt;&lt;/span&gt;&lt;span style=&quot;font-size: medium; background-color: transparent; color: light-dark(rgb(0, 0, 0), rgb(255, 255, 255));&quot;&gt;&amp;nbsp; &amp;nbsp;12 บาท&lt;/span&gt;&lt;/div&gt;&lt;div style=&quot;text-align: left;&quot;&gt;&lt;font size=&quot;3&quot;&gt;&amp;nbsp;อเมริกาโน่&amp;nbsp; &amp;nbsp; &amp;nbsp; &amp;nbsp; &amp;nbsp; &amp;nbsp; &amp;nbsp; &amp;nbsp;30 บาท&lt;/font&gt;&lt;/div&gt;&lt;div style=&quot;text-align: left;&quot;&gt;&lt;font size=&quot;3&quot;&gt;ลาเต้&amp;nbsp; &amp;nbsp; &amp;nbsp; &amp;nbsp; &amp;nbsp; &amp;nbsp; &amp;nbsp; &amp;nbsp; &amp;nbsp; &amp;nbsp; &amp;nbsp; &amp;nbsp;35 บาท&lt;/font&gt;&lt;/div&gt;" style="shape=parallelogram;perimeter=parallelogramPerimeter;whiteSpace=wrap;html=1;fixedSize=1;movable=0;resizable=0;rotatable=0;deletable=0;editable=0;locked=1;connectable=0;" parent="1" vertex="1">
          <mxGeometry x="1837.42" y="-59.17" width="265.16" height="110" as="geometry" />
        </mxCell>
        <mxCell id="4gT0J_dM45npyuXSQP9Q-207" value="" style="edgeStyle=orthogonalEdgeStyle;rounded=0;orthogonalLoop=1;jettySize=auto;html=1;movable=0;resizable=0;rotatable=0;deletable=0;editable=0;locked=1;connectable=0;" parent="1" source="4gT0J_dM45npyuXSQP9Q-204" target="4gT0J_dM45npyuXSQP9Q-206" edge="1">
          <mxGeometry relative="1" as="geometry" />
        </mxCell>
        <mxCell id="4gT0J_dM45npyuXSQP9Q-204" value="ประเภทขนม :" style="shape=parallelogram;perimeter=parallelogramPerimeter;whiteSpace=wrap;html=1;fixedSize=1;movable=0;resizable=0;rotatable=0;deletable=0;editable=0;locked=1;connectable=0;" parent="1" vertex="1">
          <mxGeometry x="1910" y="73.83" width="120" height="27" as="geometry" />
        </mxCell>
        <mxCell id="4gT0J_dM45npyuXSQP9Q-208" value="" style="edgeStyle=orthogonalEdgeStyle;rounded=0;orthogonalLoop=1;jettySize=auto;html=1;movable=0;resizable=0;rotatable=0;deletable=0;editable=0;locked=1;connectable=0;" parent="1" source="4gT0J_dM45npyuXSQP9Q-206" target="4gT0J_dM45npyuXSQP9Q-195" edge="1">
          <mxGeometry relative="1" as="geometry" />
        </mxCell>
        <mxCell id="4gT0J_dM45npyuXSQP9Q-206" value="&lt;div&gt;&lt;font size=&quot;3&quot;&gt;&amp;nbsp; &amp;nbsp; &amp;nbsp; เมล็ดทานตะวัน&amp;nbsp; &amp;nbsp;13 บาท&lt;/font&gt;&lt;/div&gt;&lt;div&gt;&lt;font size=&quot;3&quot;&gt;&amp;nbsp; &amp;nbsp; &amp;nbsp; ถั่วแปบ&amp;nbsp; &amp;nbsp; &amp;nbsp; &amp;nbsp; &amp;nbsp; &amp;nbsp; &amp;nbsp; &amp;nbsp;20 บาท&lt;/font&gt;&lt;/div&gt;&lt;div&gt;&lt;font size=&quot;3&quot;&gt;&amp;nbsp; &amp;nbsp; &amp;nbsp; จิ้มส้มหมก&amp;nbsp; &amp;nbsp; &amp;nbsp; &amp;nbsp; &amp;nbsp; 15 บาท&lt;/font&gt;&lt;/div&gt;" style="shape=parallelogram;perimeter=parallelogramPerimeter;whiteSpace=wrap;html=1;fixedSize=1;align=left;movable=0;resizable=0;rotatable=0;deletable=0;editable=0;locked=1;connectable=0;" parent="1" vertex="1">
          <mxGeometry x="1859.6799999999998" y="130.82999999999998" width="220" height="90" as="geometry" />
        </mxCell>
        <mxCell id="4gT0J_dM45npyuXSQP9Q-209" style="edgeStyle=orthogonalEdgeStyle;rounded=0;orthogonalLoop=1;jettySize=auto;html=1;exitX=0.5;exitY=1;exitDx=0;exitDy=0;movable=0;resizable=0;rotatable=0;deletable=0;editable=0;locked=1;connectable=0;" parent="1" source="4gT0J_dM45npyuXSQP9Q-182" target="4gT0J_dM45npyuXSQP9Q-182" edge="1">
          <mxGeometry relative="1" as="geometry" />
        </mxCell>
        <mxCell id="4gT0J_dM45npyuXSQP9Q-370" value="" style="edgeStyle=orthogonalEdgeStyle;rounded=0;orthogonalLoop=1;jettySize=auto;html=1;" parent="1" source="4gT0J_dM45npyuXSQP9Q-210" target="4gT0J_dM45npyuXSQP9Q-369" edge="1">
          <mxGeometry relative="1" as="geometry" />
        </mxCell>
        <mxCell id="4gT0J_dM45npyuXSQP9Q-210" value="แสดงรายการ" style="shape=process;whiteSpace=wrap;html=1;backgroundOutline=1;" parent="1" vertex="1">
          <mxGeometry x="1120.58" y="730" width="161.01" height="60" as="geometry" />
        </mxCell>
        <mxCell id="4gT0J_dM45npyuXSQP9Q-223" value="" style="edgeStyle=orthogonalEdgeStyle;rounded=0;orthogonalLoop=1;jettySize=auto;html=1;" parent="1" source="4gT0J_dM45npyuXSQP9Q-222" target="4gT0J_dM45npyuXSQP9Q-30" edge="1">
          <mxGeometry relative="1" as="geometry" />
        </mxCell>
        <mxCell id="4gT0J_dM45npyuXSQP9Q-232" value="" style="edgeStyle=orthogonalEdgeStyle;rounded=0;orthogonalLoop=1;jettySize=auto;html=1;" parent="1" source="4gT0J_dM45npyuXSQP9Q-222" target="4gT0J_dM45npyuXSQP9Q-231" edge="1">
          <mxGeometry relative="1" as="geometry" />
        </mxCell>
        <mxCell id="4gT0J_dM45npyuXSQP9Q-222" value="มี โค้ก ใช่หรือไม่" style="rhombus;whiteSpace=wrap;html=1;" parent="1" vertex="1">
          <mxGeometry x="2739.23" y="240.82999999999998" width="139" height="80" as="geometry" />
        </mxCell>
        <mxCell id="4gT0J_dM45npyuXSQP9Q-224" value="ใช้" style="text;html=1;align=center;verticalAlign=middle;resizable=0;points=[];autosize=1;strokeColor=none;fillColor=none;" parent="1" vertex="1">
          <mxGeometry x="2761.9900000000002" y="325.83" width="40" height="30" as="geometry" />
        </mxCell>
        <mxCell id="4gT0J_dM45npyuXSQP9Q-225" value="ไม่" style="text;html=1;align=center;verticalAlign=middle;resizable=0;points=[];autosize=1;strokeColor=none;fillColor=none;" parent="1" vertex="1">
          <mxGeometry x="2877.23" y="230.82999999999998" width="40" height="30" as="geometry" />
        </mxCell>
        <mxCell id="4gT0J_dM45npyuXSQP9Q-234" style="edgeStyle=orthogonalEdgeStyle;rounded=0;orthogonalLoop=1;jettySize=auto;html=1;entryX=1;entryY=0.5;entryDx=0;entryDy=0;" parent="1" source="4gT0J_dM45npyuXSQP9Q-231" target="4gT0J_dM45npyuXSQP9Q-10" edge="1">
          <mxGeometry relative="1" as="geometry">
            <Array as="points">
              <mxPoint x="2979.55" y="-144.17000000000002" />
            </Array>
          </mxGeometry>
        </mxCell>
        <mxCell id="4gT0J_dM45npyuXSQP9Q-231" value="&quot;ขออภัยสินค้าหมด&quot;" style="shape=parallelogram;perimeter=parallelogramPerimeter;whiteSpace=wrap;html=1;fixedSize=1;" parent="1" vertex="1">
          <mxGeometry x="2917.23" y="260.83" width="130" height="40" as="geometry" />
        </mxCell>
        <mxCell id="4gT0J_dM45npyuXSQP9Q-236" value="&lt;font style=&quot;font-size: 18px;&quot;&gt;Function เลือกซื้อสินค้า&lt;/font&gt;" style="text;html=1;align=center;verticalAlign=middle;whiteSpace=wrap;rounded=0;" parent="1" vertex="1">
          <mxGeometry x="2390.39" y="-299.17" width="215.32" height="30" as="geometry" />
        </mxCell>
        <mxCell id="4gT0J_dM45npyuXSQP9Q-239" value="" style="edgeStyle=orthogonalEdgeStyle;rounded=0;orthogonalLoop=1;jettySize=auto;html=1;" parent="1" source="4gT0J_dM45npyuXSQP9Q-238" target="4gT0J_dM45npyuXSQP9Q-10" edge="1">
          <mxGeometry relative="1" as="geometry" />
        </mxCell>
        <mxCell id="4gT0J_dM45npyuXSQP9Q-238" value="เริ่มต้น" style="ellipse;whiteSpace=wrap;html=1;" parent="1" vertex="1">
          <mxGeometry x="2440.55" y="-259.17" width="120" height="60" as="geometry" />
        </mxCell>
        <mxCell id="4gT0J_dM45npyuXSQP9Q-255" style="edgeStyle=orthogonalEdgeStyle;rounded=0;orthogonalLoop=1;jettySize=auto;html=1;entryX=1;entryY=0.5;entryDx=0;entryDy=0;" parent="1" source="4gT0J_dM45npyuXSQP9Q-244" target="4gT0J_dM45npyuXSQP9Q-24" edge="1">
          <mxGeometry relative="1" as="geometry">
            <Array as="points">
              <mxPoint x="2680.33" y="507.83" />
              <mxPoint x="2680.33" y="195.82999999999998" />
            </Array>
          </mxGeometry>
        </mxCell>
        <mxCell id="4gT0J_dM45npyuXSQP9Q-244" value="&lt;font style=&quot;font-size: 12px;&quot;&gt;printf รายการสินค้าที่เลือก&lt;/font&gt;" style="shape=parallelogram;perimeter=parallelogramPerimeter;whiteSpace=wrap;html=1;fixedSize=1;" parent="1" vertex="1">
          <mxGeometry x="3084.33" y="488.87999999999994" width="174.32" height="36.95" as="geometry" />
        </mxCell>
        <mxCell id="4gT0J_dM45npyuXSQP9Q-245" value="" style="edgeStyle=orthogonalEdgeStyle;rounded=0;orthogonalLoop=1;jettySize=auto;html=1;" parent="1" source="4gT0J_dM45npyuXSQP9Q-246" edge="1">
          <mxGeometry relative="1" as="geometry">
            <mxPoint x="3169.800434782609" y="489.8500000000002" as="targetPoint" />
          </mxGeometry>
        </mxCell>
        <mxCell id="4gT0J_dM45npyuXSQP9Q-246" value="&lt;div&gt;greenwater - 1&lt;/div&gt;&lt;div&gt;total + 12&lt;/div&gt;" style="whiteSpace=wrap;html=1;" parent="1" vertex="1">
          <mxGeometry x="3109.83" y="419.3" width="120" height="42.5" as="geometry" />
        </mxCell>
        <mxCell id="4gT0J_dM45npyuXSQP9Q-247" value="" style="edgeStyle=orthogonalEdgeStyle;rounded=0;orthogonalLoop=1;jettySize=auto;html=1;" parent="1" source="4gT0J_dM45npyuXSQP9Q-249" target="4gT0J_dM45npyuXSQP9Q-246" edge="1">
          <mxGeometry relative="1" as="geometry" />
        </mxCell>
        <mxCell id="4gT0J_dM45npyuXSQP9Q-248" value="" style="edgeStyle=orthogonalEdgeStyle;rounded=0;orthogonalLoop=1;jettySize=auto;html=1;" parent="1" source="4gT0J_dM45npyuXSQP9Q-249" target="4gT0J_dM45npyuXSQP9Q-251" edge="1">
          <mxGeometry relative="1" as="geometry" />
        </mxCell>
        <mxCell id="4gT0J_dM45npyuXSQP9Q-249" value="มี&amp;nbsp;&lt;span style=&quot;font-family: Sarabun; text-align: left; text-wrap-mode: nowrap;&quot;&gt;น้ำเขียว&lt;/span&gt;&amp;nbsp;ใช่หรือไม่" style="rhombus;whiteSpace=wrap;html=1;" parent="1" vertex="1">
          <mxGeometry x="3100.33" y="301.8" width="139" height="80" as="geometry" />
        </mxCell>
        <mxCell id="4gT0J_dM45npyuXSQP9Q-250" value="ใช้" style="text;html=1;align=center;verticalAlign=middle;resizable=0;points=[];autosize=1;strokeColor=none;fillColor=none;" parent="1" vertex="1">
          <mxGeometry x="3110.33" y="380.83" width="40" height="30" as="geometry" />
        </mxCell>
        <mxCell id="4gT0J_dM45npyuXSQP9Q-254" style="edgeStyle=orthogonalEdgeStyle;rounded=0;orthogonalLoop=1;jettySize=auto;html=1;entryX=1;entryY=0.5;entryDx=0;entryDy=0;" parent="1" source="4gT0J_dM45npyuXSQP9Q-251" target="4gT0J_dM45npyuXSQP9Q-10" edge="1">
          <mxGeometry relative="1" as="geometry">
            <Array as="points">
              <mxPoint x="3343.33" y="-144.17000000000002" />
            </Array>
          </mxGeometry>
        </mxCell>
        <mxCell id="4gT0J_dM45npyuXSQP9Q-251" value="&quot;ขออภัยสินค้าหมด&quot;" style="shape=parallelogram;perimeter=parallelogramPerimeter;whiteSpace=wrap;html=1;fixedSize=1;" parent="1" vertex="1">
          <mxGeometry x="3278.33" y="321.8" width="130" height="40" as="geometry" />
        </mxCell>
        <mxCell id="4gT0J_dM45npyuXSQP9Q-256" style="edgeStyle=orthogonalEdgeStyle;rounded=0;orthogonalLoop=1;jettySize=auto;html=1;entryX=0.5;entryY=0;entryDx=0;entryDy=0;" parent="1" source="4gT0J_dM45npyuXSQP9Q-257" target="4gT0J_dM45npyuXSQP9Q-265" edge="1">
          <mxGeometry relative="1" as="geometry" />
        </mxCell>
        <mxCell id="4gT0J_dM45npyuXSQP9Q-343" style="edgeStyle=orthogonalEdgeStyle;rounded=0;orthogonalLoop=1;jettySize=auto;html=1;entryX=0.5;entryY=0;entryDx=0;entryDy=0;" parent="1" source="4gT0J_dM45npyuXSQP9Q-257" target="4gT0J_dM45npyuXSQP9Q-293" edge="1">
          <mxGeometry relative="1" as="geometry" />
        </mxCell>
        <mxCell id="4gT0J_dM45npyuXSQP9Q-257" value="&lt;span style=&quot;font-family: Sarabun; text-align: left; text-wrap-mode: nowrap;&quot;&gt;&lt;font style=&quot;font-size: 12px;&quot;&gt;อเมริกาโน่ ใช้หรือไม่&lt;/font&gt;&lt;/span&gt;" style="rhombus;whiteSpace=wrap;html=1;" parent="1" vertex="1">
          <mxGeometry x="3486.33" y="260.83" width="140" height="70" as="geometry" />
        </mxCell>
        <mxCell id="4gT0J_dM45npyuXSQP9Q-258" value="ใช่" style="text;html=1;align=center;verticalAlign=middle;resizable=0;points=[];autosize=1;strokeColor=none;fillColor=none;" parent="1" vertex="1">
          <mxGeometry x="3509.75" y="330.83" width="40" height="30" as="geometry" />
        </mxCell>
        <mxCell id="4gT0J_dM45npyuXSQP9Q-259" value="ไม่" style="text;html=1;align=center;verticalAlign=middle;resizable=0;points=[];autosize=1;strokeColor=none;fillColor=none;" parent="1" vertex="1">
          <mxGeometry x="3646.33" y="260.83" width="40" height="30" as="geometry" />
        </mxCell>
        <mxCell id="4gT0J_dM45npyuXSQP9Q-341" style="edgeStyle=orthogonalEdgeStyle;rounded=0;orthogonalLoop=1;jettySize=auto;html=1;entryX=1;entryY=0.5;entryDx=0;entryDy=0;" parent="1" source="4gT0J_dM45npyuXSQP9Q-260" target="4gT0J_dM45npyuXSQP9Q-24" edge="1">
          <mxGeometry relative="1" as="geometry">
            <Array as="points">
              <mxPoint x="2680" y="572" />
              <mxPoint x="2680" y="196" />
            </Array>
          </mxGeometry>
        </mxCell>
        <mxCell id="4gT0J_dM45npyuXSQP9Q-260" value="&lt;font style=&quot;font-size: 12px;&quot;&gt;printf รายการสินค้าที่เลือก&lt;/font&gt;" style="shape=parallelogram;perimeter=parallelogramPerimeter;whiteSpace=wrap;html=1;fixedSize=1;" parent="1" vertex="1">
          <mxGeometry x="3470.33" y="553.88" width="174.32" height="36.95" as="geometry" />
        </mxCell>
        <mxCell id="4gT0J_dM45npyuXSQP9Q-261" value="" style="edgeStyle=orthogonalEdgeStyle;rounded=0;orthogonalLoop=1;jettySize=auto;html=1;" parent="1" source="4gT0J_dM45npyuXSQP9Q-262" edge="1">
          <mxGeometry relative="1" as="geometry">
            <mxPoint x="3555.800434782609" y="554.8500000000003" as="targetPoint" />
          </mxGeometry>
        </mxCell>
        <mxCell id="4gT0J_dM45npyuXSQP9Q-262" value="&lt;div&gt;amaricano - 1&lt;/div&gt;&lt;div&gt;total + 30&lt;/div&gt;" style="whiteSpace=wrap;html=1;" parent="1" vertex="1">
          <mxGeometry x="3495.83" y="484.3" width="120" height="42.5" as="geometry" />
        </mxCell>
        <mxCell id="4gT0J_dM45npyuXSQP9Q-263" value="" style="edgeStyle=orthogonalEdgeStyle;rounded=0;orthogonalLoop=1;jettySize=auto;html=1;" parent="1" source="4gT0J_dM45npyuXSQP9Q-265" target="4gT0J_dM45npyuXSQP9Q-262" edge="1">
          <mxGeometry relative="1" as="geometry" />
        </mxCell>
        <mxCell id="4gT0J_dM45npyuXSQP9Q-264" value="" style="edgeStyle=orthogonalEdgeStyle;rounded=0;orthogonalLoop=1;jettySize=auto;html=1;" parent="1" source="4gT0J_dM45npyuXSQP9Q-265" target="4gT0J_dM45npyuXSQP9Q-267" edge="1">
          <mxGeometry relative="1" as="geometry" />
        </mxCell>
        <mxCell id="4gT0J_dM45npyuXSQP9Q-265" value="มี&amp;nbsp;&lt;span style=&quot;font-family: Sarabun; text-align: left; text-wrap-mode: nowrap;&quot;&gt;อเมริกาโน่&lt;/span&gt;&amp;nbsp;ใช่หรือไม่" style="rhombus;whiteSpace=wrap;html=1;" parent="1" vertex="1">
          <mxGeometry x="3486.33" y="366.8" width="139" height="80" as="geometry" />
        </mxCell>
        <mxCell id="4gT0J_dM45npyuXSQP9Q-266" value="ใช้" style="text;html=1;align=center;verticalAlign=middle;resizable=0;points=[];autosize=1;strokeColor=none;fillColor=none;" parent="1" vertex="1">
          <mxGeometry x="3496.33" y="445.83" width="40" height="30" as="geometry" />
        </mxCell>
        <mxCell id="4gT0J_dM45npyuXSQP9Q-342" style="edgeStyle=orthogonalEdgeStyle;rounded=0;orthogonalLoop=1;jettySize=auto;html=1;entryX=1;entryY=0.5;entryDx=0;entryDy=0;" parent="1" source="4gT0J_dM45npyuXSQP9Q-267" target="4gT0J_dM45npyuXSQP9Q-10" edge="1">
          <mxGeometry relative="1" as="geometry">
            <Array as="points">
              <mxPoint x="3729" y="-144" />
            </Array>
          </mxGeometry>
        </mxCell>
        <mxCell id="4gT0J_dM45npyuXSQP9Q-267" value="&quot;ขออภัยสินค้าหมด&quot;" style="shape=parallelogram;perimeter=parallelogramPerimeter;whiteSpace=wrap;html=1;fixedSize=1;" parent="1" vertex="1">
          <mxGeometry x="3664.33" y="386.8" width="130" height="40" as="geometry" />
        </mxCell>
        <mxCell id="4gT0J_dM45npyuXSQP9Q-292" style="edgeStyle=orthogonalEdgeStyle;rounded=0;orthogonalLoop=1;jettySize=auto;html=1;entryX=0.5;entryY=0;entryDx=0;entryDy=0;" parent="1" source="4gT0J_dM45npyuXSQP9Q-293" target="4gT0J_dM45npyuXSQP9Q-301" edge="1">
          <mxGeometry relative="1" as="geometry" />
        </mxCell>
        <mxCell id="4gT0J_dM45npyuXSQP9Q-350" style="edgeStyle=orthogonalEdgeStyle;rounded=0;orthogonalLoop=1;jettySize=auto;html=1;entryX=0.5;entryY=0;entryDx=0;entryDy=0;" parent="1" source="4gT0J_dM45npyuXSQP9Q-293" target="4gT0J_dM45npyuXSQP9Q-305" edge="1">
          <mxGeometry relative="1" as="geometry" />
        </mxCell>
        <mxCell id="4gT0J_dM45npyuXSQP9Q-293" value="&lt;span style=&quot;font-family: Sarabun; text-align: left; text-wrap-mode: nowrap;&quot;&gt;&lt;font style=&quot;font-size: 12px;&quot;&gt;ลาเต้ ใช้หรือไม่&lt;/font&gt;&lt;/span&gt;" style="rhombus;whiteSpace=wrap;html=1;" parent="1" vertex="1">
          <mxGeometry x="3866.33" y="325.83" width="140" height="70" as="geometry" />
        </mxCell>
        <mxCell id="4gT0J_dM45npyuXSQP9Q-294" value="ใช่" style="text;html=1;align=center;verticalAlign=middle;resizable=0;points=[];autosize=1;strokeColor=none;fillColor=none;" parent="1" vertex="1">
          <mxGeometry x="3889.75" y="395.83" width="40" height="30" as="geometry" />
        </mxCell>
        <mxCell id="4gT0J_dM45npyuXSQP9Q-295" value="ไม่" style="text;html=1;align=center;verticalAlign=middle;resizable=0;points=[];autosize=1;strokeColor=none;fillColor=none;" parent="1" vertex="1">
          <mxGeometry x="4026.33" y="325.83" width="40" height="30" as="geometry" />
        </mxCell>
        <mxCell id="4gT0J_dM45npyuXSQP9Q-354" style="edgeStyle=orthogonalEdgeStyle;rounded=0;orthogonalLoop=1;jettySize=auto;html=1;entryX=1;entryY=0.5;entryDx=0;entryDy=0;" parent="1" source="4gT0J_dM45npyuXSQP9Q-296" target="4gT0J_dM45npyuXSQP9Q-24" edge="1">
          <mxGeometry relative="1" as="geometry">
            <Array as="points">
              <mxPoint x="2680" y="637" />
              <mxPoint x="2680" y="196" />
            </Array>
          </mxGeometry>
        </mxCell>
        <mxCell id="4gT0J_dM45npyuXSQP9Q-296" value="&lt;font style=&quot;font-size: 12px;&quot;&gt;printf รายการสินค้าที่เลือก&lt;/font&gt;" style="shape=parallelogram;perimeter=parallelogramPerimeter;whiteSpace=wrap;html=1;fixedSize=1;" parent="1" vertex="1">
          <mxGeometry x="3850.33" y="618.88" width="174.32" height="36.95" as="geometry" />
        </mxCell>
        <mxCell id="4gT0J_dM45npyuXSQP9Q-297" value="" style="edgeStyle=orthogonalEdgeStyle;rounded=0;orthogonalLoop=1;jettySize=auto;html=1;" parent="1" source="4gT0J_dM45npyuXSQP9Q-298" edge="1">
          <mxGeometry relative="1" as="geometry">
            <mxPoint x="3935.800434782609" y="619.8500000000003" as="targetPoint" />
          </mxGeometry>
        </mxCell>
        <mxCell id="4gT0J_dM45npyuXSQP9Q-298" value="&lt;div&gt;latte - 1&lt;/div&gt;&lt;div&gt;total + 35&lt;/div&gt;" style="whiteSpace=wrap;html=1;" parent="1" vertex="1">
          <mxGeometry x="3875.83" y="549.3000000000001" width="120" height="42.5" as="geometry" />
        </mxCell>
        <mxCell id="4gT0J_dM45npyuXSQP9Q-299" value="" style="edgeStyle=orthogonalEdgeStyle;rounded=0;orthogonalLoop=1;jettySize=auto;html=1;" parent="1" source="4gT0J_dM45npyuXSQP9Q-301" target="4gT0J_dM45npyuXSQP9Q-298" edge="1">
          <mxGeometry relative="1" as="geometry" />
        </mxCell>
        <mxCell id="4gT0J_dM45npyuXSQP9Q-300" value="" style="edgeStyle=orthogonalEdgeStyle;rounded=0;orthogonalLoop=1;jettySize=auto;html=1;" parent="1" source="4gT0J_dM45npyuXSQP9Q-301" target="4gT0J_dM45npyuXSQP9Q-303" edge="1">
          <mxGeometry relative="1" as="geometry" />
        </mxCell>
        <mxCell id="4gT0J_dM45npyuXSQP9Q-301" value="&lt;div style=&quot;text-align: left;&quot;&gt;&lt;span style=&quot;background-color: transparent; color: light-dark(rgb(0, 0, 0), rgb(255, 255, 255));&quot;&gt;มี &lt;font face=&quot;Sarabun&quot;&gt;&lt;span style=&quot;text-wrap-mode: nowrap;&quot;&gt;ลาเต้&lt;/span&gt;&lt;/font&gt;&lt;/span&gt;&lt;span style=&quot;background-color: transparent; color: light-dark(rgb(0, 0, 0), rgb(255, 255, 255));&quot;&gt;&amp;nbsp;ใช่หรือไม่&lt;/span&gt;&lt;/div&gt;" style="rhombus;whiteSpace=wrap;html=1;" parent="1" vertex="1">
          <mxGeometry x="3866.33" y="431.8" width="139" height="80" as="geometry" />
        </mxCell>
        <mxCell id="4gT0J_dM45npyuXSQP9Q-302" value="ใช้" style="text;html=1;align=center;verticalAlign=middle;resizable=0;points=[];autosize=1;strokeColor=none;fillColor=none;" parent="1" vertex="1">
          <mxGeometry x="3876.33" y="510.83" width="40" height="30" as="geometry" />
        </mxCell>
        <mxCell id="4gT0J_dM45npyuXSQP9Q-358" style="edgeStyle=orthogonalEdgeStyle;rounded=0;orthogonalLoop=1;jettySize=auto;html=1;entryX=1;entryY=0.5;entryDx=0;entryDy=0;" parent="1" source="4gT0J_dM45npyuXSQP9Q-303" target="4gT0J_dM45npyuXSQP9Q-10" edge="1">
          <mxGeometry relative="1" as="geometry">
            <Array as="points">
              <mxPoint x="4109" y="-144" />
            </Array>
          </mxGeometry>
        </mxCell>
        <mxCell id="4gT0J_dM45npyuXSQP9Q-303" value="&quot;ขออภัยสินค้าหมด&quot;" style="shape=parallelogram;perimeter=parallelogramPerimeter;whiteSpace=wrap;html=1;fixedSize=1;" parent="1" vertex="1">
          <mxGeometry x="4044.33" y="451.8" width="130" height="40" as="geometry" />
        </mxCell>
        <mxCell id="4gT0J_dM45npyuXSQP9Q-304" style="edgeStyle=orthogonalEdgeStyle;rounded=0;orthogonalLoop=1;jettySize=auto;html=1;entryX=0.5;entryY=0;entryDx=0;entryDy=0;" parent="1" source="4gT0J_dM45npyuXSQP9Q-305" target="4gT0J_dM45npyuXSQP9Q-313" edge="1">
          <mxGeometry relative="1" as="geometry" />
        </mxCell>
        <mxCell id="4gT0J_dM45npyuXSQP9Q-351" style="edgeStyle=orthogonalEdgeStyle;rounded=0;orthogonalLoop=1;jettySize=auto;html=1;entryX=0.5;entryY=0;entryDx=0;entryDy=0;" parent="1" source="4gT0J_dM45npyuXSQP9Q-305" target="4gT0J_dM45npyuXSQP9Q-317" edge="1">
          <mxGeometry relative="1" as="geometry" />
        </mxCell>
        <mxCell id="4gT0J_dM45npyuXSQP9Q-305" value="&lt;span style=&quot;font-family: Sarabun; text-align: left; text-wrap-mode: nowrap;&quot;&gt;&lt;font style=&quot;font-size: 12px;&quot;&gt;เมล็ดทานตะวัน ใช้หรือไม่&lt;/font&gt;&lt;/span&gt;" style="rhombus;whiteSpace=wrap;html=1;" parent="1" vertex="1">
          <mxGeometry x="4203.82" y="395.83" width="166.33" height="70" as="geometry" />
        </mxCell>
        <mxCell id="4gT0J_dM45npyuXSQP9Q-306" value="ใช่" style="text;html=1;align=center;verticalAlign=middle;resizable=0;points=[];autosize=1;strokeColor=none;fillColor=none;" parent="1" vertex="1">
          <mxGeometry x="4239.75" y="465.83" width="40" height="30" as="geometry" />
        </mxCell>
        <mxCell id="4gT0J_dM45npyuXSQP9Q-307" value="ไม่" style="text;html=1;align=center;verticalAlign=middle;resizable=0;points=[];autosize=1;strokeColor=none;fillColor=none;" parent="1" vertex="1">
          <mxGeometry x="4376.33" y="395.83" width="40" height="30" as="geometry" />
        </mxCell>
        <mxCell id="4gT0J_dM45npyuXSQP9Q-355" style="edgeStyle=orthogonalEdgeStyle;rounded=0;orthogonalLoop=1;jettySize=auto;html=1;entryX=1;entryY=0.5;entryDx=0;entryDy=0;" parent="1" source="4gT0J_dM45npyuXSQP9Q-308" target="4gT0J_dM45npyuXSQP9Q-24" edge="1">
          <mxGeometry relative="1" as="geometry">
            <Array as="points">
              <mxPoint x="2680" y="707" />
              <mxPoint x="2680" y="196" />
            </Array>
          </mxGeometry>
        </mxCell>
        <mxCell id="4gT0J_dM45npyuXSQP9Q-308" value="&lt;font style=&quot;font-size: 12px;&quot;&gt;printf รายการสินค้าที่เลือก&lt;/font&gt;" style="shape=parallelogram;perimeter=parallelogramPerimeter;whiteSpace=wrap;html=1;fixedSize=1;" parent="1" vertex="1">
          <mxGeometry x="4200.33" y="688.88" width="174.32" height="36.95" as="geometry" />
        </mxCell>
        <mxCell id="4gT0J_dM45npyuXSQP9Q-309" value="" style="edgeStyle=orthogonalEdgeStyle;rounded=0;orthogonalLoop=1;jettySize=auto;html=1;" parent="1" source="4gT0J_dM45npyuXSQP9Q-310" edge="1">
          <mxGeometry relative="1" as="geometry">
            <mxPoint x="4285.800434782609" y="689.8500000000003" as="targetPoint" />
          </mxGeometry>
        </mxCell>
        <mxCell id="4gT0J_dM45npyuXSQP9Q-310" value="&lt;div&gt;sunseed - 1&lt;/div&gt;&lt;div&gt;total + 13&lt;/div&gt;" style="whiteSpace=wrap;html=1;" parent="1" vertex="1">
          <mxGeometry x="4225.83" y="619.3000000000001" width="120" height="42.5" as="geometry" />
        </mxCell>
        <mxCell id="4gT0J_dM45npyuXSQP9Q-311" value="" style="edgeStyle=orthogonalEdgeStyle;rounded=0;orthogonalLoop=1;jettySize=auto;html=1;" parent="1" source="4gT0J_dM45npyuXSQP9Q-313" target="4gT0J_dM45npyuXSQP9Q-310" edge="1">
          <mxGeometry relative="1" as="geometry" />
        </mxCell>
        <mxCell id="4gT0J_dM45npyuXSQP9Q-312" value="" style="edgeStyle=orthogonalEdgeStyle;rounded=0;orthogonalLoop=1;jettySize=auto;html=1;" parent="1" source="4gT0J_dM45npyuXSQP9Q-313" target="4gT0J_dM45npyuXSQP9Q-315" edge="1">
          <mxGeometry relative="1" as="geometry" />
        </mxCell>
        <mxCell id="4gT0J_dM45npyuXSQP9Q-313" value="มี&amp;nbsp;&lt;span style=&quot;font-family: Sarabun; text-align: left; text-wrap-mode: nowrap;&quot;&gt;เมล็ดทานตะวัน&amp;nbsp;&lt;/span&gt;ใช่หรือไม่" style="rhombus;whiteSpace=wrap;html=1;" parent="1" vertex="1">
          <mxGeometry x="4199.32" y="501.8" width="175.33" height="80" as="geometry" />
        </mxCell>
        <mxCell id="4gT0J_dM45npyuXSQP9Q-314" value="ใช้" style="text;html=1;align=center;verticalAlign=middle;resizable=0;points=[];autosize=1;strokeColor=none;fillColor=none;" parent="1" vertex="1">
          <mxGeometry x="4226.33" y="580.83" width="40" height="30" as="geometry" />
        </mxCell>
        <mxCell id="4gT0J_dM45npyuXSQP9Q-359" style="edgeStyle=orthogonalEdgeStyle;rounded=0;orthogonalLoop=1;jettySize=auto;html=1;entryX=1;entryY=0.5;entryDx=0;entryDy=0;" parent="1" source="4gT0J_dM45npyuXSQP9Q-315" target="4gT0J_dM45npyuXSQP9Q-10" edge="1">
          <mxGeometry relative="1" as="geometry">
            <Array as="points">
              <mxPoint x="4459" y="-144" />
            </Array>
          </mxGeometry>
        </mxCell>
        <mxCell id="4gT0J_dM45npyuXSQP9Q-315" value="&quot;ขออภัยสินค้าหมด&quot;" style="shape=parallelogram;perimeter=parallelogramPerimeter;whiteSpace=wrap;html=1;fixedSize=1;" parent="1" vertex="1">
          <mxGeometry x="4394.33" y="521.8000000000001" width="130" height="40" as="geometry" />
        </mxCell>
        <mxCell id="4gT0J_dM45npyuXSQP9Q-316" style="edgeStyle=orthogonalEdgeStyle;rounded=0;orthogonalLoop=1;jettySize=auto;html=1;entryX=0.5;entryY=0;entryDx=0;entryDy=0;" parent="1" source="4gT0J_dM45npyuXSQP9Q-317" target="4gT0J_dM45npyuXSQP9Q-325" edge="1">
          <mxGeometry relative="1" as="geometry" />
        </mxCell>
        <mxCell id="4gT0J_dM45npyuXSQP9Q-352" style="edgeStyle=orthogonalEdgeStyle;rounded=0;orthogonalLoop=1;jettySize=auto;html=1;entryX=0.5;entryY=0;entryDx=0;entryDy=0;" parent="1" source="4gT0J_dM45npyuXSQP9Q-317" target="4gT0J_dM45npyuXSQP9Q-329" edge="1">
          <mxGeometry relative="1" as="geometry" />
        </mxCell>
        <mxCell id="4gT0J_dM45npyuXSQP9Q-317" value="&lt;span style=&quot;font-family: Sarabun; text-align: left; text-wrap-mode: nowrap;&quot;&gt;&lt;font style=&quot;font-size: 12px;&quot;&gt;ถั่วแปป ใช้หรือไม่&lt;/font&gt;&lt;/span&gt;" style="rhombus;whiteSpace=wrap;html=1;" parent="1" vertex="1">
          <mxGeometry x="4596.33" y="461.8" width="140" height="70" as="geometry" />
        </mxCell>
        <mxCell id="4gT0J_dM45npyuXSQP9Q-318" value="ใช่" style="text;html=1;align=center;verticalAlign=middle;resizable=0;points=[];autosize=1;strokeColor=none;fillColor=none;" parent="1" vertex="1">
          <mxGeometry x="4619.75" y="531.8000000000001" width="40" height="30" as="geometry" />
        </mxCell>
        <mxCell id="4gT0J_dM45npyuXSQP9Q-319" value="ไม่" style="text;html=1;align=center;verticalAlign=middle;resizable=0;points=[];autosize=1;strokeColor=none;fillColor=none;" parent="1" vertex="1">
          <mxGeometry x="4756.33" y="461.8" width="40" height="30" as="geometry" />
        </mxCell>
        <mxCell id="4gT0J_dM45npyuXSQP9Q-356" style="edgeStyle=orthogonalEdgeStyle;rounded=0;orthogonalLoop=1;jettySize=auto;html=1;entryX=1;entryY=0.5;entryDx=0;entryDy=0;" parent="1" source="4gT0J_dM45npyuXSQP9Q-320" target="4gT0J_dM45npyuXSQP9Q-24" edge="1">
          <mxGeometry relative="1" as="geometry">
            <Array as="points">
              <mxPoint x="2680" y="773" />
              <mxPoint x="2680" y="196" />
            </Array>
          </mxGeometry>
        </mxCell>
        <mxCell id="4gT0J_dM45npyuXSQP9Q-320" value="&lt;font style=&quot;font-size: 12px;&quot;&gt;printf รายการสินค้าที่เลือก&lt;/font&gt;" style="shape=parallelogram;perimeter=parallelogramPerimeter;whiteSpace=wrap;html=1;fixedSize=1;" parent="1" vertex="1">
          <mxGeometry x="4580.33" y="754.85" width="174.32" height="36.95" as="geometry" />
        </mxCell>
        <mxCell id="4gT0J_dM45npyuXSQP9Q-321" value="" style="edgeStyle=orthogonalEdgeStyle;rounded=0;orthogonalLoop=1;jettySize=auto;html=1;" parent="1" source="4gT0J_dM45npyuXSQP9Q-322" edge="1">
          <mxGeometry relative="1" as="geometry">
            <mxPoint x="4665.800434782609" y="755.8200000000003" as="targetPoint" />
          </mxGeometry>
        </mxCell>
        <mxCell id="4gT0J_dM45npyuXSQP9Q-322" value="&lt;div&gt;papbean - 1&lt;/div&gt;&lt;div&gt;total + 20&lt;/div&gt;" style="whiteSpace=wrap;html=1;" parent="1" vertex="1">
          <mxGeometry x="4605.83" y="685.2700000000001" width="120" height="42.5" as="geometry" />
        </mxCell>
        <mxCell id="4gT0J_dM45npyuXSQP9Q-323" value="" style="edgeStyle=orthogonalEdgeStyle;rounded=0;orthogonalLoop=1;jettySize=auto;html=1;" parent="1" source="4gT0J_dM45npyuXSQP9Q-325" target="4gT0J_dM45npyuXSQP9Q-322" edge="1">
          <mxGeometry relative="1" as="geometry" />
        </mxCell>
        <mxCell id="4gT0J_dM45npyuXSQP9Q-324" value="" style="edgeStyle=orthogonalEdgeStyle;rounded=0;orthogonalLoop=1;jettySize=auto;html=1;" parent="1" source="4gT0J_dM45npyuXSQP9Q-325" target="4gT0J_dM45npyuXSQP9Q-327" edge="1">
          <mxGeometry relative="1" as="geometry" />
        </mxCell>
        <mxCell id="4gT0J_dM45npyuXSQP9Q-325" value="&lt;div style=&quot;text-align: left;&quot;&gt;&lt;span style=&quot;background-color: transparent; color: light-dark(rgb(0, 0, 0), rgb(255, 255, 255));&quot;&gt;มี &lt;font face=&quot;Sarabun&quot;&gt;&lt;span style=&quot;text-wrap-mode: nowrap;&quot;&gt;ถั่วแปป&lt;/span&gt;&lt;/font&gt;&lt;/span&gt;&lt;span style=&quot;background-color: transparent; color: light-dark(rgb(0, 0, 0), rgb(255, 255, 255));&quot;&gt;&amp;nbsp;ใช่หรือไม่&lt;/span&gt;&lt;/div&gt;" style="rhombus;whiteSpace=wrap;html=1;" parent="1" vertex="1">
          <mxGeometry x="4596.33" y="567.7700000000001" width="139" height="80" as="geometry" />
        </mxCell>
        <mxCell id="4gT0J_dM45npyuXSQP9Q-326" value="ใช้" style="text;html=1;align=center;verticalAlign=middle;resizable=0;points=[];autosize=1;strokeColor=none;fillColor=none;" parent="1" vertex="1">
          <mxGeometry x="4606.33" y="646.8000000000001" width="40" height="30" as="geometry" />
        </mxCell>
        <mxCell id="4gT0J_dM45npyuXSQP9Q-360" style="edgeStyle=orthogonalEdgeStyle;rounded=0;orthogonalLoop=1;jettySize=auto;html=1;entryX=1;entryY=0.5;entryDx=0;entryDy=0;" parent="1" source="4gT0J_dM45npyuXSQP9Q-327" target="4gT0J_dM45npyuXSQP9Q-10" edge="1">
          <mxGeometry relative="1" as="geometry">
            <Array as="points">
              <mxPoint x="4839" y="-144" />
            </Array>
          </mxGeometry>
        </mxCell>
        <mxCell id="4gT0J_dM45npyuXSQP9Q-327" value="&quot;ขออภัยสินค้าหมด&quot;" style="shape=parallelogram;perimeter=parallelogramPerimeter;whiteSpace=wrap;html=1;fixedSize=1;" parent="1" vertex="1">
          <mxGeometry x="4774.33" y="587.7700000000001" width="130" height="40" as="geometry" />
        </mxCell>
        <mxCell id="4gT0J_dM45npyuXSQP9Q-328" style="edgeStyle=orthogonalEdgeStyle;rounded=0;orthogonalLoop=1;jettySize=auto;html=1;entryX=0.5;entryY=0;entryDx=0;entryDy=0;" parent="1" source="4gT0J_dM45npyuXSQP9Q-329" target="4gT0J_dM45npyuXSQP9Q-337" edge="1">
          <mxGeometry relative="1" as="geometry" />
        </mxCell>
        <mxCell id="4gT0J_dM45npyuXSQP9Q-363" value="" style="edgeStyle=orthogonalEdgeStyle;rounded=0;orthogonalLoop=1;jettySize=auto;html=1;entryX=0;entryY=0.5;entryDx=0;entryDy=0;" parent="1" source="4gT0J_dM45npyuXSQP9Q-329" target="4gT0J_dM45npyuXSQP9Q-362" edge="1">
          <mxGeometry relative="1" as="geometry" />
        </mxCell>
        <mxCell id="4gT0J_dM45npyuXSQP9Q-329" value="&lt;span style=&quot;font-family: Sarabun; text-align: left; text-wrap-mode: nowrap;&quot;&gt;จิ้นส้มหมก&lt;/span&gt;&lt;span style=&quot;font-family: Sarabun; text-align: left; text-wrap-mode: nowrap;&quot;&gt;&lt;font style=&quot;font-size: 12px;&quot;&gt;ใช้หรือไม่&lt;/font&gt;&lt;/span&gt;" style="rhombus;whiteSpace=wrap;html=1;" parent="1" vertex="1">
          <mxGeometry x="4936.33" y="531.8000000000001" width="140" height="70" as="geometry" />
        </mxCell>
        <mxCell id="4gT0J_dM45npyuXSQP9Q-330" value="ใช่" style="text;html=1;align=center;verticalAlign=middle;resizable=0;points=[];autosize=1;strokeColor=none;fillColor=none;" parent="1" vertex="1">
          <mxGeometry x="4959.75" y="601.8000000000001" width="40" height="30" as="geometry" />
        </mxCell>
        <mxCell id="4gT0J_dM45npyuXSQP9Q-331" value="ไม่" style="text;html=1;align=center;verticalAlign=middle;resizable=0;points=[];autosize=1;strokeColor=none;fillColor=none;" parent="1" vertex="1">
          <mxGeometry x="5096.33" y="531.8000000000001" width="40" height="30" as="geometry" />
        </mxCell>
        <mxCell id="4gT0J_dM45npyuXSQP9Q-357" style="edgeStyle=orthogonalEdgeStyle;rounded=0;orthogonalLoop=1;jettySize=auto;html=1;entryX=1;entryY=0.5;entryDx=0;entryDy=0;" parent="1" source="4gT0J_dM45npyuXSQP9Q-332" target="4gT0J_dM45npyuXSQP9Q-24" edge="1">
          <mxGeometry relative="1" as="geometry">
            <Array as="points">
              <mxPoint x="2680" y="843" />
              <mxPoint x="2680" y="196" />
            </Array>
          </mxGeometry>
        </mxCell>
        <mxCell id="4gT0J_dM45npyuXSQP9Q-332" value="&lt;font style=&quot;font-size: 12px;&quot;&gt;printf รายการสินค้าที่เลือก&lt;/font&gt;" style="shape=parallelogram;perimeter=parallelogramPerimeter;whiteSpace=wrap;html=1;fixedSize=1;" parent="1" vertex="1">
          <mxGeometry x="4920.33" y="824.85" width="174.32" height="36.95" as="geometry" />
        </mxCell>
        <mxCell id="4gT0J_dM45npyuXSQP9Q-333" value="" style="edgeStyle=orthogonalEdgeStyle;rounded=0;orthogonalLoop=1;jettySize=auto;html=1;" parent="1" source="4gT0J_dM45npyuXSQP9Q-334" edge="1">
          <mxGeometry relative="1" as="geometry">
            <mxPoint x="5005.800434782609" y="825.8200000000003" as="targetPoint" />
          </mxGeometry>
        </mxCell>
        <mxCell id="4gT0J_dM45npyuXSQP9Q-334" value="&lt;div&gt;sourpork - 1&lt;/div&gt;&lt;div&gt;total + 15&lt;/div&gt;" style="whiteSpace=wrap;html=1;" parent="1" vertex="1">
          <mxGeometry x="4945.83" y="755.2700000000001" width="120" height="42.5" as="geometry" />
        </mxCell>
        <mxCell id="4gT0J_dM45npyuXSQP9Q-335" value="" style="edgeStyle=orthogonalEdgeStyle;rounded=0;orthogonalLoop=1;jettySize=auto;html=1;" parent="1" source="4gT0J_dM45npyuXSQP9Q-337" target="4gT0J_dM45npyuXSQP9Q-334" edge="1">
          <mxGeometry relative="1" as="geometry" />
        </mxCell>
        <mxCell id="4gT0J_dM45npyuXSQP9Q-336" value="" style="edgeStyle=orthogonalEdgeStyle;rounded=0;orthogonalLoop=1;jettySize=auto;html=1;" parent="1" source="4gT0J_dM45npyuXSQP9Q-337" target="4gT0J_dM45npyuXSQP9Q-339" edge="1">
          <mxGeometry relative="1" as="geometry" />
        </mxCell>
        <mxCell id="4gT0J_dM45npyuXSQP9Q-337" value="&lt;div style=&quot;text-align: left;&quot;&gt;&lt;span style=&quot;background-color: transparent; color: light-dark(rgb(0, 0, 0), rgb(255, 255, 255));&quot;&gt;มี &lt;font face=&quot;Sarabun&quot;&gt;&lt;span style=&quot;text-wrap-mode: nowrap;&quot;&gt;จิ้นส้มหมก&lt;/span&gt;&lt;/font&gt;&lt;/span&gt;&lt;span style=&quot;background-color: transparent; color: light-dark(rgb(0, 0, 0), rgb(255, 255, 255));&quot;&gt;&amp;nbsp;ใช่หรือไม่&lt;/span&gt;&lt;/div&gt;" style="rhombus;whiteSpace=wrap;html=1;" parent="1" vertex="1">
          <mxGeometry x="4936.33" y="637.7700000000001" width="139" height="80" as="geometry" />
        </mxCell>
        <mxCell id="4gT0J_dM45npyuXSQP9Q-338" value="ใช้" style="text;html=1;align=center;verticalAlign=middle;resizable=0;points=[];autosize=1;strokeColor=none;fillColor=none;" parent="1" vertex="1">
          <mxGeometry x="4946.33" y="716.8000000000001" width="40" height="30" as="geometry" />
        </mxCell>
        <mxCell id="4gT0J_dM45npyuXSQP9Q-361" style="edgeStyle=orthogonalEdgeStyle;rounded=0;orthogonalLoop=1;jettySize=auto;html=1;entryX=1;entryY=0.5;entryDx=0;entryDy=0;" parent="1" source="4gT0J_dM45npyuXSQP9Q-339" target="4gT0J_dM45npyuXSQP9Q-10" edge="1">
          <mxGeometry relative="1" as="geometry">
            <Array as="points">
              <mxPoint x="5170" y="-144" />
            </Array>
          </mxGeometry>
        </mxCell>
        <mxCell id="4gT0J_dM45npyuXSQP9Q-339" value="&quot;ขออภัยสินค้าหมด&quot;" style="shape=parallelogram;perimeter=parallelogramPerimeter;whiteSpace=wrap;html=1;fixedSize=1;" parent="1" vertex="1">
          <mxGeometry x="5114.33" y="657.7700000000001" width="130" height="40" as="geometry" />
        </mxCell>
        <mxCell id="4gT0J_dM45npyuXSQP9Q-344" value="ไม่" style="text;html=1;align=center;verticalAlign=middle;resizable=0;points=[];autosize=1;strokeColor=none;fillColor=none;" parent="1" vertex="1">
          <mxGeometry x="3250" y="300" width="40" height="30" as="geometry" />
        </mxCell>
        <mxCell id="4gT0J_dM45npyuXSQP9Q-345" value="ไม่" style="text;html=1;align=center;verticalAlign=middle;resizable=0;points=[];autosize=1;strokeColor=none;fillColor=none;" parent="1" vertex="1">
          <mxGeometry x="3620" y="360" width="40" height="30" as="geometry" />
        </mxCell>
        <mxCell id="4gT0J_dM45npyuXSQP9Q-346" value="ไม่" style="text;html=1;align=center;verticalAlign=middle;resizable=0;points=[];autosize=1;strokeColor=none;fillColor=none;" parent="1" vertex="1">
          <mxGeometry x="4010" y="430" width="40" height="30" as="geometry" />
        </mxCell>
        <mxCell id="4gT0J_dM45npyuXSQP9Q-347" value="ไม่" style="text;html=1;align=center;verticalAlign=middle;resizable=0;points=[];autosize=1;strokeColor=none;fillColor=none;" parent="1" vertex="1">
          <mxGeometry x="4360" y="500" width="40" height="30" as="geometry" />
        </mxCell>
        <mxCell id="4gT0J_dM45npyuXSQP9Q-348" value="ไม่" style="text;html=1;align=center;verticalAlign=middle;resizable=0;points=[];autosize=1;strokeColor=none;fillColor=none;" parent="1" vertex="1">
          <mxGeometry x="4740" y="570" width="40" height="30" as="geometry" />
        </mxCell>
        <mxCell id="4gT0J_dM45npyuXSQP9Q-349" value="ไม่" style="text;html=1;align=center;verticalAlign=middle;resizable=0;points=[];autosize=1;strokeColor=none;fillColor=none;" parent="1" vertex="1">
          <mxGeometry x="5070" y="640" width="40" height="30" as="geometry" />
        </mxCell>
        <mxCell id="4gT0J_dM45npyuXSQP9Q-364" style="edgeStyle=orthogonalEdgeStyle;rounded=0;orthogonalLoop=1;jettySize=auto;html=1;entryX=1;entryY=0.5;entryDx=0;entryDy=0;" parent="1" source="4gT0J_dM45npyuXSQP9Q-362" target="4gT0J_dM45npyuXSQP9Q-10" edge="1">
          <mxGeometry relative="1" as="geometry">
            <Array as="points">
              <mxPoint x="5340" y="-144" />
            </Array>
          </mxGeometry>
        </mxCell>
        <mxCell id="4gT0J_dM45npyuXSQP9Q-362" value="&quot;ขออภัยไม่มีสินค้าที่ท่านเลือก&quot;&amp;nbsp;" style="shape=parallelogram;perimeter=parallelogramPerimeter;whiteSpace=wrap;html=1;fixedSize=1;" parent="1" vertex="1">
          <mxGeometry x="5230" y="545.1999999999999" width="210" height="43.2" as="geometry" />
        </mxCell>
        <mxCell id="4gT0J_dM45npyuXSQP9Q-368" value="จบกระบวนการ" style="ellipse;whiteSpace=wrap;html=1;" parent="1" vertex="1">
          <mxGeometry x="2440.9999999999995" y="820" width="120" height="80" as="geometry" />
        </mxCell>
        <mxCell id="4gT0J_dM45npyuXSQP9Q-376" value="" style="edgeStyle=orthogonalEdgeStyle;rounded=0;orthogonalLoop=1;jettySize=auto;html=1;" parent="1" source="4gT0J_dM45npyuXSQP9Q-369" target="4gT0J_dM45npyuXSQP9Q-375" edge="1">
          <mxGeometry relative="1" as="geometry" />
        </mxCell>
        <mxCell id="4gT0J_dM45npyuXSQP9Q-369" value="เลือกซื้อสินค้า" style="shape=process;whiteSpace=wrap;html=1;backgroundOutline=1;" parent="1" vertex="1">
          <mxGeometry x="1120.58" y="870" width="161.01" height="60" as="geometry" />
        </mxCell>
        <mxCell id="jWHdfV1-SxDjOFl-vo34-2" value="" style="edgeStyle=orthogonalEdgeStyle;rounded=0;orthogonalLoop=1;jettySize=auto;html=1;" edge="1" parent="1" source="4gT0J_dM45npyuXSQP9Q-375" target="jWHdfV1-SxDjOFl-vo34-1">
          <mxGeometry relative="1" as="geometry" />
        </mxCell>
        <mxCell id="4gT0J_dM45npyuXSQP9Q-375" value="รับเงิน" style="shape=process;whiteSpace=wrap;html=1;backgroundOutline=1;" parent="1" vertex="1">
          <mxGeometry x="1120.58" y="1010" width="161.01" height="60" as="geometry" />
        </mxCell>
        <mxCell id="4gT0J_dM45npyuXSQP9Q-377" value="&lt;span style=&quot;font-size: 18px;&quot;&gt;Function รับเงิน&lt;/span&gt;" style="text;html=1;align=center;verticalAlign=middle;whiteSpace=wrap;rounded=0;movable=1;resizable=1;rotatable=1;deletable=1;editable=1;locked=0;connectable=1;" parent="1" vertex="1">
          <mxGeometry x="-426.55999999999995" y="-119.99999999999996" width="250" height="30" as="geometry" />
        </mxCell>
        <mxCell id="jWHdfV1-SxDjOFl-vo34-1" value="ทอนเงิน" style="shape=process;whiteSpace=wrap;html=1;backgroundOutline=1;" vertex="1" parent="1">
          <mxGeometry x="1120.58" y="1150" width="161.01" height="60" as="geometry" />
        </mxCell>
        <mxCell id="jWHdfV1-SxDjOFl-vo34-228" style="edgeStyle=orthogonalEdgeStyle;rounded=0;orthogonalLoop=1;jettySize=auto;html=1;entryX=1;entryY=0.5;entryDx=0;entryDy=0;" edge="1" parent="1" source="jWHdfV1-SxDjOFl-vo34-3" target="jWHdfV1-SxDjOFl-vo34-1">
          <mxGeometry relative="1" as="geometry" />
        </mxCell>
        <mxCell id="jWHdfV1-SxDjOFl-vo34-3" value="&lt;div&gt;&lt;font style=&quot;font-size: 18px;&quot;&gt;&lt;br&gt;&lt;/font&gt;&lt;/div&gt;" style="rounded=0;whiteSpace=wrap;html=1;movable=0;resizable=0;rotatable=0;deletable=0;editable=0;locked=1;connectable=0;" vertex="1" parent="1">
          <mxGeometry x="1610" y="1180" width="2760" height="1940" as="geometry" />
        </mxCell>
        <mxCell id="jWHdfV1-SxDjOFl-vo34-86" value="" style="edgeStyle=orthogonalEdgeStyle;rounded=0;orthogonalLoop=1;jettySize=auto;html=1;" edge="1" parent="1" source="jWHdfV1-SxDjOFl-vo34-12" target="jWHdfV1-SxDjOFl-vo34-85">
          <mxGeometry relative="1" as="geometry" />
        </mxCell>
        <mxCell id="jWHdfV1-SxDjOFl-vo34-12" value="" style="ellipse;whiteSpace=wrap;html=1;aspect=fixed;movable=1;resizable=1;rotatable=1;deletable=1;editable=1;locked=0;connectable=1;" vertex="1" parent="1">
          <mxGeometry x="1775" y="1369.3" width="70" height="70" as="geometry" />
        </mxCell>
        <mxCell id="jWHdfV1-SxDjOFl-vo34-75" value="" style="edgeStyle=orthogonalEdgeStyle;rounded=0;orthogonalLoop=1;jettySize=auto;html=1;movable=1;resizable=1;rotatable=1;deletable=1;editable=1;locked=0;connectable=1;" edge="1" parent="1" source="jWHdfV1-SxDjOFl-vo34-76" target="jWHdfV1-SxDjOFl-vo34-12">
          <mxGeometry relative="1" as="geometry" />
        </mxCell>
        <mxCell id="jWHdfV1-SxDjOFl-vo34-76" value="เริ่มต้น" style="ellipse;whiteSpace=wrap;html=1;movable=1;resizable=1;rotatable=1;deletable=1;editable=1;locked=0;connectable=1;" vertex="1" parent="1">
          <mxGeometry x="1750" y="1277.8000000000002" width="120" height="45" as="geometry" />
        </mxCell>
        <mxCell id="jWHdfV1-SxDjOFl-vo34-77" value="จบการทำงาน" style="ellipse;whiteSpace=wrap;html=1;movable=1;resizable=1;rotatable=1;deletable=1;editable=1;locked=0;connectable=1;" vertex="1" parent="1">
          <mxGeometry x="1753.44" y="3050" width="110" height="50" as="geometry" />
        </mxCell>
        <mxCell id="jWHdfV1-SxDjOFl-vo34-78" value="&lt;span style=&quot;font-size: 18px;&quot;&gt;Function ทอนเงิน&lt;/span&gt;" style="text;html=1;align=center;verticalAlign=middle;whiteSpace=wrap;rounded=0;movable=1;resizable=1;rotatable=1;deletable=1;editable=1;locked=0;connectable=1;" vertex="1" parent="1">
          <mxGeometry x="1683.44" y="1210" width="250" height="30" as="geometry" />
        </mxCell>
        <mxCell id="jWHdfV1-SxDjOFl-vo34-84" style="edgeStyle=orthogonalEdgeStyle;rounded=0;orthogonalLoop=1;jettySize=auto;html=1;entryX=0;entryY=0.5;entryDx=0;entryDy=0;exitX=0;exitY=0.5;exitDx=0;exitDy=0;" edge="1" parent="1" source="jWHdfV1-SxDjOFl-vo34-80" target="jWHdfV1-SxDjOFl-vo34-12">
          <mxGeometry relative="1" as="geometry">
            <mxPoint x="1690" y="2880" as="sourcePoint" />
            <Array as="points">
              <mxPoint x="1650" y="2875" />
              <mxPoint x="1650" y="1404" />
            </Array>
          </mxGeometry>
        </mxCell>
        <mxCell id="jWHdfV1-SxDjOFl-vo34-215" style="edgeStyle=orthogonalEdgeStyle;rounded=0;orthogonalLoop=1;jettySize=auto;html=1;entryX=0.5;entryY=0;entryDx=0;entryDy=0;" edge="1" parent="1" source="jWHdfV1-SxDjOFl-vo34-80" target="jWHdfV1-SxDjOFl-vo34-214">
          <mxGeometry relative="1" as="geometry" />
        </mxCell>
        <mxCell id="jWHdfV1-SxDjOFl-vo34-80" value="ทอนเงินหมดแล้ว หรืออ ยัง&lt;div&gt;change == 0&lt;/div&gt;" style="rhombus;whiteSpace=wrap;html=1;" vertex="1" parent="1">
          <mxGeometry x="1696" y="2810" width="226" height="130" as="geometry" />
        </mxCell>
        <mxCell id="jWHdfV1-SxDjOFl-vo34-81" value="ใช่" style="text;html=1;align=center;verticalAlign=middle;whiteSpace=wrap;rounded=0;" vertex="1" parent="1">
          <mxGeometry x="1825.5" y="2940" width="60" height="30" as="geometry" />
        </mxCell>
        <mxCell id="jWHdfV1-SxDjOFl-vo34-82" value="ไม่" style="text;html=1;align=center;verticalAlign=middle;whiteSpace=wrap;rounded=0;" vertex="1" parent="1">
          <mxGeometry x="1659.3899999999999" y="2820" width="60" height="30" as="geometry" />
        </mxCell>
        <mxCell id="jWHdfV1-SxDjOFl-vo34-94" value="" style="edgeStyle=orthogonalEdgeStyle;rounded=0;orthogonalLoop=1;jettySize=auto;html=1;" edge="1" parent="1" source="jWHdfV1-SxDjOFl-vo34-85" target="jWHdfV1-SxDjOFl-vo34-92">
          <mxGeometry relative="1" as="geometry" />
        </mxCell>
        <mxCell id="jWHdfV1-SxDjOFl-vo34-100" style="edgeStyle=orthogonalEdgeStyle;rounded=0;orthogonalLoop=1;jettySize=auto;html=1;entryX=0;entryY=0.5;entryDx=0;entryDy=0;" edge="1" parent="1" source="jWHdfV1-SxDjOFl-vo34-85" target="jWHdfV1-SxDjOFl-vo34-99">
          <mxGeometry relative="1" as="geometry" />
        </mxCell>
        <mxCell id="jWHdfV1-SxDjOFl-vo34-85" value="เงินทอนมากกว่า 1000 บาท&lt;div&gt;change &amp;gt;= 1000&lt;/div&gt;" style="rhombus;whiteSpace=wrap;html=1;" vertex="1" parent="1">
          <mxGeometry x="1697" y="1480" width="226" height="110" as="geometry" />
        </mxCell>
        <mxCell id="jWHdfV1-SxDjOFl-vo34-113" value="" style="edgeStyle=orthogonalEdgeStyle;rounded=0;orthogonalLoop=1;jettySize=auto;html=1;" edge="1" parent="1" source="jWHdfV1-SxDjOFl-vo34-89" target="jWHdfV1-SxDjOFl-vo34-109">
          <mxGeometry relative="1" as="geometry" />
        </mxCell>
        <mxCell id="jWHdfV1-SxDjOFl-vo34-190" style="edgeStyle=orthogonalEdgeStyle;rounded=0;orthogonalLoop=1;jettySize=auto;html=1;entryX=0;entryY=0.5;entryDx=0;entryDy=0;" edge="1" parent="1" source="jWHdfV1-SxDjOFl-vo34-89" target="jWHdfV1-SxDjOFl-vo34-120">
          <mxGeometry relative="1" as="geometry" />
        </mxCell>
        <mxCell id="jWHdfV1-SxDjOFl-vo34-89" value="เงินทอนมากกว่า 500 บาท&lt;div&gt;change &amp;gt;= 500&lt;/div&gt;" style="rhombus;whiteSpace=wrap;html=1;" vertex="1" parent="1">
          <mxGeometry x="2019.58" y="1605" width="226" height="110" as="geometry" />
        </mxCell>
        <mxCell id="jWHdfV1-SxDjOFl-vo34-103" value="" style="edgeStyle=orthogonalEdgeStyle;rounded=0;orthogonalLoop=1;jettySize=auto;html=1;" edge="1" parent="1" source="jWHdfV1-SxDjOFl-vo34-92" target="jWHdfV1-SxDjOFl-vo34-102">
          <mxGeometry relative="1" as="geometry" />
        </mxCell>
        <mxCell id="jWHdfV1-SxDjOFl-vo34-105" style="edgeStyle=orthogonalEdgeStyle;rounded=0;orthogonalLoop=1;jettySize=auto;html=1;entryX=0;entryY=0.5;entryDx=0;entryDy=0;" edge="1" parent="1" source="jWHdfV1-SxDjOFl-vo34-92" target="jWHdfV1-SxDjOFl-vo34-99">
          <mxGeometry relative="1" as="geometry">
            <Array as="points">
              <mxPoint x="1990" y="1675" />
              <mxPoint x="1990" y="1535" />
            </Array>
          </mxGeometry>
        </mxCell>
        <mxCell id="jWHdfV1-SxDjOFl-vo34-92" value="มีแบงค์ 1000 หรือไม่&lt;div&gt;ch1000 != 0&lt;/div&gt;" style="rhombus;whiteSpace=wrap;html=1;" vertex="1" parent="1">
          <mxGeometry x="1696" y="1620" width="226" height="110" as="geometry" />
        </mxCell>
        <mxCell id="jWHdfV1-SxDjOFl-vo34-96" value="" style="edgeStyle=orthogonalEdgeStyle;rounded=0;orthogonalLoop=1;jettySize=auto;html=1;" edge="1" parent="1" source="jWHdfV1-SxDjOFl-vo34-95" target="jWHdfV1-SxDjOFl-vo34-80">
          <mxGeometry relative="1" as="geometry" />
        </mxCell>
        <mxCell id="jWHdfV1-SxDjOFl-vo34-95" value="" style="ellipse;whiteSpace=wrap;html=1;aspect=fixed;movable=1;resizable=1;rotatable=1;deletable=1;editable=1;locked=0;connectable=1;" vertex="1" parent="1">
          <mxGeometry x="1774" y="2715" width="70" height="70" as="geometry" />
        </mxCell>
        <mxCell id="jWHdfV1-SxDjOFl-vo34-97" value="ไม่" style="text;html=1;align=center;verticalAlign=middle;whiteSpace=wrap;rounded=0;" vertex="1" parent="1">
          <mxGeometry x="1915" y="1490" width="60" height="30" as="geometry" />
        </mxCell>
        <mxCell id="jWHdfV1-SxDjOFl-vo34-98" value="ไม่" style="text;html=1;align=center;verticalAlign=middle;whiteSpace=wrap;rounded=0;" vertex="1" parent="1">
          <mxGeometry x="1915" y="1635" width="60" height="30" as="geometry" />
        </mxCell>
        <mxCell id="jWHdfV1-SxDjOFl-vo34-101" value="" style="edgeStyle=orthogonalEdgeStyle;rounded=0;orthogonalLoop=1;jettySize=auto;html=1;" edge="1" parent="1" source="jWHdfV1-SxDjOFl-vo34-99" target="jWHdfV1-SxDjOFl-vo34-89">
          <mxGeometry relative="1" as="geometry" />
        </mxCell>
        <mxCell id="jWHdfV1-SxDjOFl-vo34-99" value="" style="ellipse;whiteSpace=wrap;html=1;aspect=fixed;movable=1;resizable=1;rotatable=1;deletable=1;editable=1;locked=0;connectable=1;" vertex="1" parent="1">
          <mxGeometry x="2102.58" y="1505" width="60" height="60" as="geometry" />
        </mxCell>
        <mxCell id="jWHdfV1-SxDjOFl-vo34-104" style="edgeStyle=orthogonalEdgeStyle;rounded=0;orthogonalLoop=1;jettySize=auto;html=1;entryX=0.5;entryY=0;entryDx=0;entryDy=0;" edge="1" parent="1" source="jWHdfV1-SxDjOFl-vo34-102" target="jWHdfV1-SxDjOFl-vo34-95">
          <mxGeometry relative="1" as="geometry" />
        </mxCell>
        <mxCell id="jWHdfV1-SxDjOFl-vo34-102" value="ทอนเงิน&lt;div&gt;ch1000 - 1&lt;/div&gt;" style="whiteSpace=wrap;html=1;" vertex="1" parent="1">
          <mxGeometry x="1734.5" y="1770" width="151" height="50" as="geometry" />
        </mxCell>
        <mxCell id="jWHdfV1-SxDjOFl-vo34-106" value="ใช่" style="text;html=1;align=center;verticalAlign=middle;whiteSpace=wrap;rounded=0;" vertex="1" parent="1">
          <mxGeometry x="1750" y="1590" width="60" height="30" as="geometry" />
        </mxCell>
        <mxCell id="jWHdfV1-SxDjOFl-vo34-107" value="ใช่" style="text;html=1;align=center;verticalAlign=middle;whiteSpace=wrap;rounded=0;" vertex="1" parent="1">
          <mxGeometry x="1754" y="1730" width="60" height="30" as="geometry" />
        </mxCell>
        <mxCell id="jWHdfV1-SxDjOFl-vo34-108" value="" style="edgeStyle=orthogonalEdgeStyle;rounded=0;orthogonalLoop=1;jettySize=auto;html=1;" edge="1" parent="1" source="jWHdfV1-SxDjOFl-vo34-109" target="jWHdfV1-SxDjOFl-vo34-111">
          <mxGeometry relative="1" as="geometry" />
        </mxCell>
        <mxCell id="jWHdfV1-SxDjOFl-vo34-189" style="edgeStyle=orthogonalEdgeStyle;rounded=0;orthogonalLoop=1;jettySize=auto;html=1;entryX=0;entryY=0.5;entryDx=0;entryDy=0;" edge="1" parent="1" source="jWHdfV1-SxDjOFl-vo34-109" target="jWHdfV1-SxDjOFl-vo34-120">
          <mxGeometry relative="1" as="geometry">
            <Array as="points">
              <mxPoint x="2320" y="1805" />
              <mxPoint x="2320" y="1661" />
            </Array>
          </mxGeometry>
        </mxCell>
        <mxCell id="jWHdfV1-SxDjOFl-vo34-109" value="มีแบงค์ 500 หรือไม่&lt;div&gt;ch500 != 0&lt;/div&gt;" style="rhombus;whiteSpace=wrap;html=1;" vertex="1" parent="1">
          <mxGeometry x="2019.58" y="1750" width="226" height="110" as="geometry" />
        </mxCell>
        <mxCell id="jWHdfV1-SxDjOFl-vo34-110" value="ไม่" style="text;html=1;align=center;verticalAlign=middle;whiteSpace=wrap;rounded=0;" vertex="1" parent="1">
          <mxGeometry x="2238.58" y="1765" width="60" height="30" as="geometry" />
        </mxCell>
        <mxCell id="jWHdfV1-SxDjOFl-vo34-115" style="edgeStyle=orthogonalEdgeStyle;rounded=0;orthogonalLoop=1;jettySize=auto;html=1;entryX=0.5;entryY=0;entryDx=0;entryDy=0;" edge="1" parent="1" source="jWHdfV1-SxDjOFl-vo34-111" target="jWHdfV1-SxDjOFl-vo34-95">
          <mxGeometry relative="1" as="geometry" />
        </mxCell>
        <mxCell id="jWHdfV1-SxDjOFl-vo34-111" value="ทอนเงิน&lt;div&gt;ch500 - 1&lt;/div&gt;" style="whiteSpace=wrap;html=1;" vertex="1" parent="1">
          <mxGeometry x="2058.08" y="1900" width="151" height="50" as="geometry" />
        </mxCell>
        <mxCell id="jWHdfV1-SxDjOFl-vo34-112" value="ใช่" style="text;html=1;align=center;verticalAlign=middle;whiteSpace=wrap;rounded=0;" vertex="1" parent="1">
          <mxGeometry x="2077.58" y="1860" width="60" height="30" as="geometry" />
        </mxCell>
        <mxCell id="jWHdfV1-SxDjOFl-vo34-114" value="ใช่" style="text;html=1;align=center;verticalAlign=middle;whiteSpace=wrap;rounded=0;" vertex="1" parent="1">
          <mxGeometry x="2077.58" y="1720" width="60" height="30" as="geometry" />
        </mxCell>
        <mxCell id="jWHdfV1-SxDjOFl-vo34-116" value="ไม่" style="text;html=1;align=center;verticalAlign=middle;whiteSpace=wrap;rounded=0;" vertex="1" parent="1">
          <mxGeometry x="2238.58" y="1620" width="60" height="30" as="geometry" />
        </mxCell>
        <mxCell id="jWHdfV1-SxDjOFl-vo34-117" value="" style="edgeStyle=orthogonalEdgeStyle;rounded=0;orthogonalLoop=1;jettySize=auto;html=1;" edge="1" parent="1" source="jWHdfV1-SxDjOFl-vo34-118" target="jWHdfV1-SxDjOFl-vo34-122">
          <mxGeometry relative="1" as="geometry" />
        </mxCell>
        <mxCell id="jWHdfV1-SxDjOFl-vo34-191" style="edgeStyle=orthogonalEdgeStyle;rounded=0;orthogonalLoop=1;jettySize=auto;html=1;entryX=0;entryY=0.5;entryDx=0;entryDy=0;" edge="1" parent="1" source="jWHdfV1-SxDjOFl-vo34-118" target="jWHdfV1-SxDjOFl-vo34-131">
          <mxGeometry relative="1" as="geometry" />
        </mxCell>
        <mxCell id="jWHdfV1-SxDjOFl-vo34-118" value="เงินทอนมากกว่า 100 บาท&lt;div&gt;change &amp;gt;=&amp;nbsp;&lt;span style=&quot;background-color: transparent; color: light-dark(rgb(0, 0, 0), rgb(255, 255, 255));&quot;&gt;100&lt;/span&gt;&lt;/div&gt;" style="rhombus;whiteSpace=wrap;html=1;" vertex="1" parent="1">
          <mxGeometry x="2339.92" y="1731" width="226" height="110" as="geometry" />
        </mxCell>
        <mxCell id="jWHdfV1-SxDjOFl-vo34-119" value="" style="edgeStyle=orthogonalEdgeStyle;rounded=0;orthogonalLoop=1;jettySize=auto;html=1;" edge="1" parent="1" source="jWHdfV1-SxDjOFl-vo34-120" target="jWHdfV1-SxDjOFl-vo34-118">
          <mxGeometry relative="1" as="geometry" />
        </mxCell>
        <mxCell id="jWHdfV1-SxDjOFl-vo34-120" value="" style="ellipse;whiteSpace=wrap;html=1;aspect=fixed;movable=1;resizable=1;rotatable=1;deletable=1;editable=1;locked=0;connectable=1;" vertex="1" parent="1">
          <mxGeometry x="2422.92" y="1631" width="60" height="60" as="geometry" />
        </mxCell>
        <mxCell id="jWHdfV1-SxDjOFl-vo34-121" value="" style="edgeStyle=orthogonalEdgeStyle;rounded=0;orthogonalLoop=1;jettySize=auto;html=1;" edge="1" parent="1" source="jWHdfV1-SxDjOFl-vo34-122" target="jWHdfV1-SxDjOFl-vo34-124">
          <mxGeometry relative="1" as="geometry" />
        </mxCell>
        <mxCell id="jWHdfV1-SxDjOFl-vo34-192" style="edgeStyle=orthogonalEdgeStyle;rounded=0;orthogonalLoop=1;jettySize=auto;html=1;entryX=0;entryY=0.5;entryDx=0;entryDy=0;" edge="1" parent="1" source="jWHdfV1-SxDjOFl-vo34-122" target="jWHdfV1-SxDjOFl-vo34-131">
          <mxGeometry relative="1" as="geometry">
            <Array as="points">
              <mxPoint x="2630" y="1931" />
              <mxPoint x="2630" y="1785" />
            </Array>
          </mxGeometry>
        </mxCell>
        <mxCell id="jWHdfV1-SxDjOFl-vo34-122" value="มีแบงค์ 100&amp;nbsp;หรือไม่&lt;div&gt;ch100&amp;nbsp;!= 0&lt;/div&gt;" style="rhombus;whiteSpace=wrap;html=1;" vertex="1" parent="1">
          <mxGeometry x="2339.92" y="1876" width="226" height="110" as="geometry" />
        </mxCell>
        <mxCell id="jWHdfV1-SxDjOFl-vo34-123" value="ไม่" style="text;html=1;align=center;verticalAlign=middle;whiteSpace=wrap;rounded=0;" vertex="1" parent="1">
          <mxGeometry x="2558.92" y="1895" width="60" height="30" as="geometry" />
        </mxCell>
        <mxCell id="jWHdfV1-SxDjOFl-vo34-183" style="edgeStyle=orthogonalEdgeStyle;rounded=0;orthogonalLoop=1;jettySize=auto;html=1;entryX=0.5;entryY=0;entryDx=0;entryDy=0;" edge="1" parent="1" source="jWHdfV1-SxDjOFl-vo34-124" target="jWHdfV1-SxDjOFl-vo34-95">
          <mxGeometry relative="1" as="geometry" />
        </mxCell>
        <mxCell id="jWHdfV1-SxDjOFl-vo34-124" value="ทอนเงิน&lt;div&gt;ch100&amp;nbsp;- 1&lt;/div&gt;" style="whiteSpace=wrap;html=1;" vertex="1" parent="1">
          <mxGeometry x="2378.42" y="2026" width="151" height="50" as="geometry" />
        </mxCell>
        <mxCell id="jWHdfV1-SxDjOFl-vo34-125" value="ใช่" style="text;html=1;align=center;verticalAlign=middle;whiteSpace=wrap;rounded=0;" vertex="1" parent="1">
          <mxGeometry x="2397.92" y="1986" width="60" height="30" as="geometry" />
        </mxCell>
        <mxCell id="jWHdfV1-SxDjOFl-vo34-126" value="ใช่" style="text;html=1;align=center;verticalAlign=middle;whiteSpace=wrap;rounded=0;" vertex="1" parent="1">
          <mxGeometry x="2397.92" y="1846" width="60" height="30" as="geometry" />
        </mxCell>
        <mxCell id="jWHdfV1-SxDjOFl-vo34-127" value="ไม่" style="text;html=1;align=center;verticalAlign=middle;whiteSpace=wrap;rounded=0;" vertex="1" parent="1">
          <mxGeometry x="2558.92" y="1750" width="60" height="30" as="geometry" />
        </mxCell>
        <mxCell id="jWHdfV1-SxDjOFl-vo34-128" value="" style="edgeStyle=orthogonalEdgeStyle;rounded=0;orthogonalLoop=1;jettySize=auto;html=1;" edge="1" parent="1" source="jWHdfV1-SxDjOFl-vo34-129" target="jWHdfV1-SxDjOFl-vo34-133">
          <mxGeometry relative="1" as="geometry" />
        </mxCell>
        <mxCell id="jWHdfV1-SxDjOFl-vo34-193" style="edgeStyle=orthogonalEdgeStyle;rounded=0;orthogonalLoop=1;jettySize=auto;html=1;entryX=0;entryY=0.5;entryDx=0;entryDy=0;" edge="1" parent="1" source="jWHdfV1-SxDjOFl-vo34-129" target="jWHdfV1-SxDjOFl-vo34-142">
          <mxGeometry relative="1" as="geometry" />
        </mxCell>
        <mxCell id="jWHdfV1-SxDjOFl-vo34-129" value="เงินทอนมากกว่า 50&amp;nbsp;บาท&lt;div&gt;change &amp;gt;=&amp;nbsp;&lt;span style=&quot;background-color: transparent; color: light-dark(rgb(0, 0, 0), rgb(255, 255, 255));&quot;&gt;50&lt;/span&gt;&lt;/div&gt;" style="rhombus;whiteSpace=wrap;html=1;" vertex="1" parent="1">
          <mxGeometry x="2642.73" y="1855" width="226" height="110" as="geometry" />
        </mxCell>
        <mxCell id="jWHdfV1-SxDjOFl-vo34-130" value="" style="edgeStyle=orthogonalEdgeStyle;rounded=0;orthogonalLoop=1;jettySize=auto;html=1;" edge="1" parent="1" source="jWHdfV1-SxDjOFl-vo34-131" target="jWHdfV1-SxDjOFl-vo34-129">
          <mxGeometry relative="1" as="geometry" />
        </mxCell>
        <mxCell id="jWHdfV1-SxDjOFl-vo34-131" value="" style="ellipse;whiteSpace=wrap;html=1;aspect=fixed;movable=1;resizable=1;rotatable=1;deletable=1;editable=1;locked=0;connectable=1;" vertex="1" parent="1">
          <mxGeometry x="2725.73" y="1755" width="60" height="60" as="geometry" />
        </mxCell>
        <mxCell id="jWHdfV1-SxDjOFl-vo34-132" value="" style="edgeStyle=orthogonalEdgeStyle;rounded=0;orthogonalLoop=1;jettySize=auto;html=1;" edge="1" parent="1" source="jWHdfV1-SxDjOFl-vo34-133" target="jWHdfV1-SxDjOFl-vo34-135">
          <mxGeometry relative="1" as="geometry" />
        </mxCell>
        <mxCell id="jWHdfV1-SxDjOFl-vo34-195" style="edgeStyle=orthogonalEdgeStyle;rounded=0;orthogonalLoop=1;jettySize=auto;html=1;entryX=0;entryY=0.5;entryDx=0;entryDy=0;" edge="1" parent="1" source="jWHdfV1-SxDjOFl-vo34-133" target="jWHdfV1-SxDjOFl-vo34-142">
          <mxGeometry relative="1" as="geometry">
            <Array as="points">
              <mxPoint x="2920" y="2055" />
              <mxPoint x="2920" y="1910" />
            </Array>
          </mxGeometry>
        </mxCell>
        <mxCell id="jWHdfV1-SxDjOFl-vo34-133" value="มีแบงค์ 50&amp;nbsp;หรือไม่&lt;div&gt;ch50&amp;nbsp;!= 0&lt;/div&gt;" style="rhombus;whiteSpace=wrap;html=1;" vertex="1" parent="1">
          <mxGeometry x="2642.73" y="2000" width="226" height="110" as="geometry" />
        </mxCell>
        <mxCell id="jWHdfV1-SxDjOFl-vo34-134" value="ไม่" style="text;html=1;align=center;verticalAlign=middle;whiteSpace=wrap;rounded=0;" vertex="1" parent="1">
          <mxGeometry x="2857.23" y="2020" width="60" height="30" as="geometry" />
        </mxCell>
        <mxCell id="jWHdfV1-SxDjOFl-vo34-184" style="edgeStyle=orthogonalEdgeStyle;rounded=0;orthogonalLoop=1;jettySize=auto;html=1;entryX=0.5;entryY=0;entryDx=0;entryDy=0;" edge="1" parent="1" source="jWHdfV1-SxDjOFl-vo34-135" target="jWHdfV1-SxDjOFl-vo34-95">
          <mxGeometry relative="1" as="geometry" />
        </mxCell>
        <mxCell id="jWHdfV1-SxDjOFl-vo34-135" value="ทอนเงิน&lt;div&gt;ch50 - 1&lt;/div&gt;" style="whiteSpace=wrap;html=1;" vertex="1" parent="1">
          <mxGeometry x="2681.23" y="2150" width="151" height="50" as="geometry" />
        </mxCell>
        <mxCell id="jWHdfV1-SxDjOFl-vo34-136" value="ใช่" style="text;html=1;align=center;verticalAlign=middle;whiteSpace=wrap;rounded=0;" vertex="1" parent="1">
          <mxGeometry x="2700.73" y="2110" width="60" height="30" as="geometry" />
        </mxCell>
        <mxCell id="jWHdfV1-SxDjOFl-vo34-137" value="ใช่" style="text;html=1;align=center;verticalAlign=middle;whiteSpace=wrap;rounded=0;" vertex="1" parent="1">
          <mxGeometry x="2700.73" y="1970" width="60" height="30" as="geometry" />
        </mxCell>
        <mxCell id="jWHdfV1-SxDjOFl-vo34-138" value="ไม่" style="text;html=1;align=center;verticalAlign=middle;whiteSpace=wrap;rounded=0;" vertex="1" parent="1">
          <mxGeometry x="2857.23" y="1875" width="60" height="30" as="geometry" />
        </mxCell>
        <mxCell id="jWHdfV1-SxDjOFl-vo34-139" value="" style="edgeStyle=orthogonalEdgeStyle;rounded=0;orthogonalLoop=1;jettySize=auto;html=1;" edge="1" parent="1" source="jWHdfV1-SxDjOFl-vo34-140" target="jWHdfV1-SxDjOFl-vo34-144">
          <mxGeometry relative="1" as="geometry" />
        </mxCell>
        <mxCell id="jWHdfV1-SxDjOFl-vo34-197" style="edgeStyle=orthogonalEdgeStyle;rounded=0;orthogonalLoop=1;jettySize=auto;html=1;entryX=0;entryY=0.5;entryDx=0;entryDy=0;" edge="1" parent="1" source="jWHdfV1-SxDjOFl-vo34-140" target="jWHdfV1-SxDjOFl-vo34-153">
          <mxGeometry relative="1" as="geometry" />
        </mxCell>
        <mxCell id="jWHdfV1-SxDjOFl-vo34-140" value="เงินทอนมากกว่า 20 บาท&lt;div&gt;change &amp;gt;=&amp;nbsp;&lt;span style=&quot;background-color: transparent; color: light-dark(rgb(0, 0, 0), rgb(255, 255, 255));&quot;&gt;20&lt;/span&gt;&lt;/div&gt;" style="rhombus;whiteSpace=wrap;html=1;" vertex="1" parent="1">
          <mxGeometry x="2940" y="1980" width="226" height="110" as="geometry" />
        </mxCell>
        <mxCell id="jWHdfV1-SxDjOFl-vo34-141" value="" style="edgeStyle=orthogonalEdgeStyle;rounded=0;orthogonalLoop=1;jettySize=auto;html=1;" edge="1" parent="1" source="jWHdfV1-SxDjOFl-vo34-142" target="jWHdfV1-SxDjOFl-vo34-140">
          <mxGeometry relative="1" as="geometry" />
        </mxCell>
        <mxCell id="jWHdfV1-SxDjOFl-vo34-142" value="" style="ellipse;whiteSpace=wrap;html=1;aspect=fixed;movable=1;resizable=1;rotatable=1;deletable=1;editable=1;locked=0;connectable=1;" vertex="1" parent="1">
          <mxGeometry x="3023" y="1880" width="60" height="60" as="geometry" />
        </mxCell>
        <mxCell id="jWHdfV1-SxDjOFl-vo34-143" value="" style="edgeStyle=orthogonalEdgeStyle;rounded=0;orthogonalLoop=1;jettySize=auto;html=1;" edge="1" parent="1" source="jWHdfV1-SxDjOFl-vo34-144" target="jWHdfV1-SxDjOFl-vo34-146">
          <mxGeometry relative="1" as="geometry" />
        </mxCell>
        <mxCell id="jWHdfV1-SxDjOFl-vo34-196" style="edgeStyle=orthogonalEdgeStyle;rounded=0;orthogonalLoop=1;jettySize=auto;html=1;entryX=0;entryY=0.5;entryDx=0;entryDy=0;" edge="1" parent="1" source="jWHdfV1-SxDjOFl-vo34-144" target="jWHdfV1-SxDjOFl-vo34-153">
          <mxGeometry relative="1" as="geometry">
            <Array as="points">
              <mxPoint x="3230" y="2180" />
              <mxPoint x="3230" y="2036" />
            </Array>
          </mxGeometry>
        </mxCell>
        <mxCell id="jWHdfV1-SxDjOFl-vo34-144" value="มีแบงค์ 20&amp;nbsp;หรือไม่&lt;div&gt;ch20&amp;nbsp;!= 0&lt;/div&gt;" style="rhombus;whiteSpace=wrap;html=1;" vertex="1" parent="1">
          <mxGeometry x="2940" y="2125" width="226" height="110" as="geometry" />
        </mxCell>
        <mxCell id="jWHdfV1-SxDjOFl-vo34-145" value="ไม่" style="text;html=1;align=center;verticalAlign=middle;whiteSpace=wrap;rounded=0;" vertex="1" parent="1">
          <mxGeometry x="3159" y="2140" width="60" height="30" as="geometry" />
        </mxCell>
        <mxCell id="jWHdfV1-SxDjOFl-vo34-185" style="edgeStyle=orthogonalEdgeStyle;rounded=0;orthogonalLoop=1;jettySize=auto;html=1;entryX=0.5;entryY=0;entryDx=0;entryDy=0;" edge="1" parent="1" source="jWHdfV1-SxDjOFl-vo34-146" target="jWHdfV1-SxDjOFl-vo34-95">
          <mxGeometry relative="1" as="geometry" />
        </mxCell>
        <mxCell id="jWHdfV1-SxDjOFl-vo34-146" value="ทอนเงิน&lt;div&gt;ch20&amp;nbsp;- 1&lt;/div&gt;" style="whiteSpace=wrap;html=1;" vertex="1" parent="1">
          <mxGeometry x="2978.5" y="2275" width="151" height="50" as="geometry" />
        </mxCell>
        <mxCell id="jWHdfV1-SxDjOFl-vo34-147" value="ใช่" style="text;html=1;align=center;verticalAlign=middle;whiteSpace=wrap;rounded=0;" vertex="1" parent="1">
          <mxGeometry x="2998" y="2235" width="60" height="30" as="geometry" />
        </mxCell>
        <mxCell id="jWHdfV1-SxDjOFl-vo34-148" value="ใช่" style="text;html=1;align=center;verticalAlign=middle;whiteSpace=wrap;rounded=0;" vertex="1" parent="1">
          <mxGeometry x="2998" y="2095" width="60" height="30" as="geometry" />
        </mxCell>
        <mxCell id="jWHdfV1-SxDjOFl-vo34-149" value="ไม่" style="text;html=1;align=center;verticalAlign=middle;whiteSpace=wrap;rounded=0;" vertex="1" parent="1">
          <mxGeometry x="3159" y="1995" width="60" height="30" as="geometry" />
        </mxCell>
        <mxCell id="jWHdfV1-SxDjOFl-vo34-150" value="" style="edgeStyle=orthogonalEdgeStyle;rounded=0;orthogonalLoop=1;jettySize=auto;html=1;" edge="1" parent="1" source="jWHdfV1-SxDjOFl-vo34-151" target="jWHdfV1-SxDjOFl-vo34-155">
          <mxGeometry relative="1" as="geometry" />
        </mxCell>
        <mxCell id="jWHdfV1-SxDjOFl-vo34-199" style="edgeStyle=orthogonalEdgeStyle;rounded=0;orthogonalLoop=1;jettySize=auto;html=1;entryX=0;entryY=0.5;entryDx=0;entryDy=0;" edge="1" parent="1" source="jWHdfV1-SxDjOFl-vo34-151" target="jWHdfV1-SxDjOFl-vo34-164">
          <mxGeometry relative="1" as="geometry" />
        </mxCell>
        <mxCell id="jWHdfV1-SxDjOFl-vo34-151" value="เงินทอนมากกว่า 10 บาท&lt;div&gt;change &amp;gt;=&amp;nbsp;&lt;span style=&quot;background-color: transparent; color: light-dark(rgb(0, 0, 0), rgb(255, 255, 255));&quot;&gt;10&lt;/span&gt;&lt;/div&gt;" style="rhombus;whiteSpace=wrap;html=1;" vertex="1" parent="1">
          <mxGeometry x="3239.33" y="2106" width="226" height="110" as="geometry" />
        </mxCell>
        <mxCell id="jWHdfV1-SxDjOFl-vo34-152" value="" style="edgeStyle=orthogonalEdgeStyle;rounded=0;orthogonalLoop=1;jettySize=auto;html=1;" edge="1" parent="1" source="jWHdfV1-SxDjOFl-vo34-153" target="jWHdfV1-SxDjOFl-vo34-151">
          <mxGeometry relative="1" as="geometry" />
        </mxCell>
        <mxCell id="jWHdfV1-SxDjOFl-vo34-153" value="" style="ellipse;whiteSpace=wrap;html=1;aspect=fixed;movable=1;resizable=1;rotatable=1;deletable=1;editable=1;locked=0;connectable=1;" vertex="1" parent="1">
          <mxGeometry x="3322.33" y="2006" width="60" height="60" as="geometry" />
        </mxCell>
        <mxCell id="jWHdfV1-SxDjOFl-vo34-154" value="" style="edgeStyle=orthogonalEdgeStyle;rounded=0;orthogonalLoop=1;jettySize=auto;html=1;" edge="1" parent="1" source="jWHdfV1-SxDjOFl-vo34-155" target="jWHdfV1-SxDjOFl-vo34-157">
          <mxGeometry relative="1" as="geometry" />
        </mxCell>
        <mxCell id="jWHdfV1-SxDjOFl-vo34-198" style="edgeStyle=orthogonalEdgeStyle;rounded=0;orthogonalLoop=1;jettySize=auto;html=1;entryX=0;entryY=0.5;entryDx=0;entryDy=0;" edge="1" parent="1" source="jWHdfV1-SxDjOFl-vo34-155" target="jWHdfV1-SxDjOFl-vo34-164">
          <mxGeometry relative="1" as="geometry">
            <Array as="points">
              <mxPoint x="3530" y="2306" />
              <mxPoint x="3530" y="2160" />
            </Array>
          </mxGeometry>
        </mxCell>
        <mxCell id="jWHdfV1-SxDjOFl-vo34-155" value="มีเหรียญ 10&amp;nbsp;หรือไม่&lt;div&gt;cn&lt;span style=&quot;background-color: transparent; color: light-dark(rgb(0, 0, 0), rgb(255, 255, 255));&quot;&gt;10&amp;nbsp;&lt;/span&gt;&lt;span style=&quot;background-color: transparent; color: light-dark(rgb(0, 0, 0), rgb(255, 255, 255));&quot;&gt;!= 0&lt;/span&gt;&lt;/div&gt;" style="rhombus;whiteSpace=wrap;html=1;" vertex="1" parent="1">
          <mxGeometry x="3239.33" y="2251" width="226" height="110" as="geometry" />
        </mxCell>
        <mxCell id="jWHdfV1-SxDjOFl-vo34-156" value="ไม่" style="text;html=1;align=center;verticalAlign=middle;whiteSpace=wrap;rounded=0;" vertex="1" parent="1">
          <mxGeometry x="3458.33" y="2266" width="60" height="30" as="geometry" />
        </mxCell>
        <mxCell id="jWHdfV1-SxDjOFl-vo34-186" style="edgeStyle=orthogonalEdgeStyle;rounded=0;orthogonalLoop=1;jettySize=auto;html=1;entryX=0.5;entryY=0;entryDx=0;entryDy=0;" edge="1" parent="1" source="jWHdfV1-SxDjOFl-vo34-157" target="jWHdfV1-SxDjOFl-vo34-95">
          <mxGeometry relative="1" as="geometry" />
        </mxCell>
        <mxCell id="jWHdfV1-SxDjOFl-vo34-157" value="ทอนเงิน&lt;div&gt;cn&lt;span style=&quot;background-color: transparent; color: light-dark(rgb(0, 0, 0), rgb(255, 255, 255));&quot;&gt;10&lt;/span&gt;&lt;span style=&quot;background-color: transparent; color: light-dark(rgb(0, 0, 0), rgb(255, 255, 255));&quot;&gt;&amp;nbsp;- 1&lt;/span&gt;&lt;/div&gt;" style="whiteSpace=wrap;html=1;" vertex="1" parent="1">
          <mxGeometry x="3277.83" y="2401" width="151" height="50" as="geometry" />
        </mxCell>
        <mxCell id="jWHdfV1-SxDjOFl-vo34-158" value="ใช่" style="text;html=1;align=center;verticalAlign=middle;whiteSpace=wrap;rounded=0;" vertex="1" parent="1">
          <mxGeometry x="3297.33" y="2361" width="60" height="30" as="geometry" />
        </mxCell>
        <mxCell id="jWHdfV1-SxDjOFl-vo34-159" value="ใช่" style="text;html=1;align=center;verticalAlign=middle;whiteSpace=wrap;rounded=0;" vertex="1" parent="1">
          <mxGeometry x="3297.33" y="2221" width="60" height="30" as="geometry" />
        </mxCell>
        <mxCell id="jWHdfV1-SxDjOFl-vo34-160" value="ไม่" style="text;html=1;align=center;verticalAlign=middle;whiteSpace=wrap;rounded=0;" vertex="1" parent="1">
          <mxGeometry x="3458.33" y="2121" width="60" height="30" as="geometry" />
        </mxCell>
        <mxCell id="jWHdfV1-SxDjOFl-vo34-161" value="" style="edgeStyle=orthogonalEdgeStyle;rounded=0;orthogonalLoop=1;jettySize=auto;html=1;" edge="1" parent="1" source="jWHdfV1-SxDjOFl-vo34-162" target="jWHdfV1-SxDjOFl-vo34-166">
          <mxGeometry relative="1" as="geometry" />
        </mxCell>
        <mxCell id="jWHdfV1-SxDjOFl-vo34-201" style="edgeStyle=orthogonalEdgeStyle;rounded=0;orthogonalLoop=1;jettySize=auto;html=1;entryX=0;entryY=0.5;entryDx=0;entryDy=0;" edge="1" parent="1" source="jWHdfV1-SxDjOFl-vo34-162" target="jWHdfV1-SxDjOFl-vo34-175">
          <mxGeometry relative="1" as="geometry" />
        </mxCell>
        <mxCell id="jWHdfV1-SxDjOFl-vo34-162" value="เงินทอนมากกว่า 5 บาท&lt;div&gt;change &amp;gt;= 5&lt;/div&gt;" style="rhombus;whiteSpace=wrap;html=1;" vertex="1" parent="1">
          <mxGeometry x="3546" y="2230" width="226" height="110" as="geometry" />
        </mxCell>
        <mxCell id="jWHdfV1-SxDjOFl-vo34-163" value="" style="edgeStyle=orthogonalEdgeStyle;rounded=0;orthogonalLoop=1;jettySize=auto;html=1;" edge="1" parent="1" source="jWHdfV1-SxDjOFl-vo34-164" target="jWHdfV1-SxDjOFl-vo34-162">
          <mxGeometry relative="1" as="geometry" />
        </mxCell>
        <mxCell id="jWHdfV1-SxDjOFl-vo34-164" value="" style="ellipse;whiteSpace=wrap;html=1;aspect=fixed;movable=1;resizable=1;rotatable=1;deletable=1;editable=1;locked=0;connectable=1;" vertex="1" parent="1">
          <mxGeometry x="3629" y="2130" width="60" height="60" as="geometry" />
        </mxCell>
        <mxCell id="jWHdfV1-SxDjOFl-vo34-165" value="" style="edgeStyle=orthogonalEdgeStyle;rounded=0;orthogonalLoop=1;jettySize=auto;html=1;" edge="1" parent="1" source="jWHdfV1-SxDjOFl-vo34-166" target="jWHdfV1-SxDjOFl-vo34-168">
          <mxGeometry relative="1" as="geometry" />
        </mxCell>
        <mxCell id="jWHdfV1-SxDjOFl-vo34-200" style="edgeStyle=orthogonalEdgeStyle;rounded=0;orthogonalLoop=1;jettySize=auto;html=1;entryX=0;entryY=0.5;entryDx=0;entryDy=0;" edge="1" parent="1" source="jWHdfV1-SxDjOFl-vo34-166" target="jWHdfV1-SxDjOFl-vo34-175">
          <mxGeometry relative="1" as="geometry">
            <Array as="points">
              <mxPoint x="3830" y="2430" />
              <mxPoint x="3830" y="2286" />
            </Array>
          </mxGeometry>
        </mxCell>
        <mxCell id="jWHdfV1-SxDjOFl-vo34-166" value="มีเหรียญ 5 หรือไม่&lt;div&gt;cn5 != 0&lt;/div&gt;" style="rhombus;whiteSpace=wrap;html=1;" vertex="1" parent="1">
          <mxGeometry x="3546" y="2375" width="226" height="110" as="geometry" />
        </mxCell>
        <mxCell id="jWHdfV1-SxDjOFl-vo34-167" value="ไม่" style="text;html=1;align=center;verticalAlign=middle;whiteSpace=wrap;rounded=0;" vertex="1" parent="1">
          <mxGeometry x="3765" y="2390" width="60" height="30" as="geometry" />
        </mxCell>
        <mxCell id="jWHdfV1-SxDjOFl-vo34-187" style="edgeStyle=orthogonalEdgeStyle;rounded=0;orthogonalLoop=1;jettySize=auto;html=1;entryX=0.5;entryY=0;entryDx=0;entryDy=0;" edge="1" parent="1" source="jWHdfV1-SxDjOFl-vo34-168" target="jWHdfV1-SxDjOFl-vo34-95">
          <mxGeometry relative="1" as="geometry" />
        </mxCell>
        <mxCell id="jWHdfV1-SxDjOFl-vo34-168" value="ทอนเงิน&lt;div&gt;cn5 - 1&lt;/div&gt;" style="whiteSpace=wrap;html=1;" vertex="1" parent="1">
          <mxGeometry x="3584.5" y="2525" width="151" height="50" as="geometry" />
        </mxCell>
        <mxCell id="jWHdfV1-SxDjOFl-vo34-169" value="ใช่" style="text;html=1;align=center;verticalAlign=middle;whiteSpace=wrap;rounded=0;" vertex="1" parent="1">
          <mxGeometry x="3604" y="2485" width="60" height="30" as="geometry" />
        </mxCell>
        <mxCell id="jWHdfV1-SxDjOFl-vo34-170" value="ใช่" style="text;html=1;align=center;verticalAlign=middle;whiteSpace=wrap;rounded=0;" vertex="1" parent="1">
          <mxGeometry x="3604" y="2345" width="60" height="30" as="geometry" />
        </mxCell>
        <mxCell id="jWHdfV1-SxDjOFl-vo34-171" value="ไม่" style="text;html=1;align=center;verticalAlign=middle;whiteSpace=wrap;rounded=0;" vertex="1" parent="1">
          <mxGeometry x="3765" y="2245" width="60" height="30" as="geometry" />
        </mxCell>
        <mxCell id="jWHdfV1-SxDjOFl-vo34-172" value="" style="edgeStyle=orthogonalEdgeStyle;rounded=0;orthogonalLoop=1;jettySize=auto;html=1;" edge="1" parent="1" source="jWHdfV1-SxDjOFl-vo34-173" target="jWHdfV1-SxDjOFl-vo34-177">
          <mxGeometry relative="1" as="geometry" />
        </mxCell>
        <mxCell id="jWHdfV1-SxDjOFl-vo34-205" style="edgeStyle=orthogonalEdgeStyle;rounded=0;orthogonalLoop=1;jettySize=auto;html=1;entryX=0;entryY=0.5;entryDx=0;entryDy=0;" edge="1" parent="1" source="jWHdfV1-SxDjOFl-vo34-173" target="jWHdfV1-SxDjOFl-vo34-204">
          <mxGeometry relative="1" as="geometry" />
        </mxCell>
        <mxCell id="jWHdfV1-SxDjOFl-vo34-173" value="เงินทอนมากกว่า 1 บาท&lt;div&gt;change &amp;gt;= 1&lt;/div&gt;" style="rhombus;whiteSpace=wrap;html=1;" vertex="1" parent="1">
          <mxGeometry x="3840" y="2356" width="226" height="110" as="geometry" />
        </mxCell>
        <mxCell id="jWHdfV1-SxDjOFl-vo34-174" value="" style="edgeStyle=orthogonalEdgeStyle;rounded=0;orthogonalLoop=1;jettySize=auto;html=1;" edge="1" parent="1" source="jWHdfV1-SxDjOFl-vo34-175" target="jWHdfV1-SxDjOFl-vo34-173">
          <mxGeometry relative="1" as="geometry" />
        </mxCell>
        <mxCell id="jWHdfV1-SxDjOFl-vo34-175" value="" style="ellipse;whiteSpace=wrap;html=1;aspect=fixed;movable=1;resizable=1;rotatable=1;deletable=1;editable=1;locked=0;connectable=1;" vertex="1" parent="1">
          <mxGeometry x="3923" y="2256" width="60" height="60" as="geometry" />
        </mxCell>
        <mxCell id="jWHdfV1-SxDjOFl-vo34-176" value="" style="edgeStyle=orthogonalEdgeStyle;rounded=0;orthogonalLoop=1;jettySize=auto;html=1;" edge="1" parent="1" source="jWHdfV1-SxDjOFl-vo34-177" target="jWHdfV1-SxDjOFl-vo34-179">
          <mxGeometry relative="1" as="geometry" />
        </mxCell>
        <mxCell id="jWHdfV1-SxDjOFl-vo34-208" style="edgeStyle=orthogonalEdgeStyle;rounded=0;orthogonalLoop=1;jettySize=auto;html=1;entryX=0;entryY=0.5;entryDx=0;entryDy=0;" edge="1" parent="1" source="jWHdfV1-SxDjOFl-vo34-177" target="jWHdfV1-SxDjOFl-vo34-204">
          <mxGeometry relative="1" as="geometry">
            <Array as="points">
              <mxPoint x="4120" y="2556" />
              <mxPoint x="4120" y="2411" />
            </Array>
          </mxGeometry>
        </mxCell>
        <mxCell id="jWHdfV1-SxDjOFl-vo34-177" value="มีเหรียญ&amp;nbsp;1 หรือไม่&lt;div&gt;cn1 != 0&lt;/div&gt;" style="rhombus;whiteSpace=wrap;html=1;" vertex="1" parent="1">
          <mxGeometry x="3840" y="2501" width="226" height="110" as="geometry" />
        </mxCell>
        <mxCell id="jWHdfV1-SxDjOFl-vo34-178" value="ไม่" style="text;html=1;align=center;verticalAlign=middle;whiteSpace=wrap;rounded=0;" vertex="1" parent="1">
          <mxGeometry x="4044.33" y="2501" width="60" height="30" as="geometry" />
        </mxCell>
        <mxCell id="jWHdfV1-SxDjOFl-vo34-188" style="edgeStyle=orthogonalEdgeStyle;rounded=0;orthogonalLoop=1;jettySize=auto;html=1;entryX=0.5;entryY=0;entryDx=0;entryDy=0;" edge="1" parent="1" source="jWHdfV1-SxDjOFl-vo34-179" target="jWHdfV1-SxDjOFl-vo34-95">
          <mxGeometry relative="1" as="geometry" />
        </mxCell>
        <mxCell id="jWHdfV1-SxDjOFl-vo34-179" value="ทอนเงิน&lt;br&gt;&lt;div&gt;&lt;span style=&quot;background-color: transparent; color: light-dark(rgb(0, 0, 0), rgb(255, 255, 255));&quot;&gt;cn1&lt;/span&gt;&amp;nbsp;- 1&lt;/div&gt;" style="whiteSpace=wrap;html=1;" vertex="1" parent="1">
          <mxGeometry x="3878.5" y="2651" width="151" height="50" as="geometry" />
        </mxCell>
        <mxCell id="jWHdfV1-SxDjOFl-vo34-180" value="ใช่" style="text;html=1;align=center;verticalAlign=middle;whiteSpace=wrap;rounded=0;" vertex="1" parent="1">
          <mxGeometry x="3898" y="2611" width="60" height="30" as="geometry" />
        </mxCell>
        <mxCell id="jWHdfV1-SxDjOFl-vo34-181" value="ใช่" style="text;html=1;align=center;verticalAlign=middle;whiteSpace=wrap;rounded=0;" vertex="1" parent="1">
          <mxGeometry x="3898" y="2471" width="60" height="30" as="geometry" />
        </mxCell>
        <mxCell id="jWHdfV1-SxDjOFl-vo34-182" value="ไม่" style="text;html=1;align=center;verticalAlign=middle;whiteSpace=wrap;rounded=0;" vertex="1" parent="1">
          <mxGeometry x="4059" y="2371" width="60" height="30" as="geometry" />
        </mxCell>
        <mxCell id="jWHdfV1-SxDjOFl-vo34-224" style="edgeStyle=orthogonalEdgeStyle;rounded=0;orthogonalLoop=1;jettySize=auto;html=1;entryX=0.5;entryY=0;entryDx=0;entryDy=0;" edge="1" parent="1" source="jWHdfV1-SxDjOFl-vo34-204" target="jWHdfV1-SxDjOFl-vo34-220">
          <mxGeometry relative="1" as="geometry" />
        </mxCell>
        <mxCell id="jWHdfV1-SxDjOFl-vo34-204" value="" style="ellipse;whiteSpace=wrap;html=1;aspect=fixed;movable=1;resizable=1;rotatable=1;deletable=1;editable=1;locked=0;connectable=1;" vertex="1" parent="1">
          <mxGeometry x="4203.82" y="2381" width="60" height="60" as="geometry" />
        </mxCell>
        <mxCell id="jWHdfV1-SxDjOFl-vo34-227" style="edgeStyle=orthogonalEdgeStyle;rounded=0;orthogonalLoop=1;jettySize=auto;html=1;entryX=1;entryY=0.5;entryDx=0;entryDy=0;" edge="1" parent="1" source="jWHdfV1-SxDjOFl-vo34-209" target="jWHdfV1-SxDjOFl-vo34-214">
          <mxGeometry relative="1" as="geometry">
            <Array as="points">
              <mxPoint x="4234" y="2995" />
            </Array>
          </mxGeometry>
        </mxCell>
        <mxCell id="jWHdfV1-SxDjOFl-vo34-209" value="&quot;โปรดติดต่อพนักงาน&quot;" style="shape=parallelogram;perimeter=parallelogramPerimeter;whiteSpace=wrap;html=1;fixedSize=1;" vertex="1" parent="1">
          <mxGeometry x="4153.82" y="2580" width="160" height="30" as="geometry" />
        </mxCell>
        <mxCell id="jWHdfV1-SxDjOFl-vo34-216" style="edgeStyle=orthogonalEdgeStyle;rounded=0;orthogonalLoop=1;jettySize=auto;html=1;entryX=0.5;entryY=0;entryDx=0;entryDy=0;" edge="1" parent="1" source="jWHdfV1-SxDjOFl-vo34-214" target="jWHdfV1-SxDjOFl-vo34-77">
          <mxGeometry relative="1" as="geometry" />
        </mxCell>
        <mxCell id="jWHdfV1-SxDjOFl-vo34-214" value="" style="ellipse;whiteSpace=wrap;html=1;aspect=fixed;movable=1;resizable=1;rotatable=1;deletable=1;editable=1;locked=0;connectable=1;" vertex="1" parent="1">
          <mxGeometry x="1774" y="2960" width="70" height="70" as="geometry" />
        </mxCell>
        <mxCell id="jWHdfV1-SxDjOFl-vo34-225" style="edgeStyle=orthogonalEdgeStyle;rounded=0;orthogonalLoop=1;jettySize=auto;html=1;entryX=0.5;entryY=0;entryDx=0;entryDy=0;" edge="1" parent="1" source="jWHdfV1-SxDjOFl-vo34-220" target="jWHdfV1-SxDjOFl-vo34-222">
          <mxGeometry relative="1" as="geometry" />
        </mxCell>
        <mxCell id="jWHdfV1-SxDjOFl-vo34-220" value="&quot;ยอดเงินคงเหลือ&quot; , change" style="shape=parallelogram;perimeter=parallelogramPerimeter;whiteSpace=wrap;html=1;fixedSize=1;" vertex="1" parent="1">
          <mxGeometry x="4143.82" y="2470" width="180" height="40" as="geometry" />
        </mxCell>
        <mxCell id="jWHdfV1-SxDjOFl-vo34-226" style="edgeStyle=orthogonalEdgeStyle;rounded=0;orthogonalLoop=1;jettySize=auto;html=1;entryX=0.5;entryY=0;entryDx=0;entryDy=0;" edge="1" parent="1" source="jWHdfV1-SxDjOFl-vo34-222" target="jWHdfV1-SxDjOFl-vo34-209">
          <mxGeometry relative="1" as="geometry" />
        </mxCell>
        <mxCell id="jWHdfV1-SxDjOFl-vo34-222" value="&quot;&quot;ไม่สามารถทอนเงินได้&quot;" style="shape=parallelogram;perimeter=parallelogramPerimeter;whiteSpace=wrap;html=1;fixedSize=1;" vertex="1" parent="1">
          <mxGeometry x="4153.82" y="2531" width="160" height="30" as="geometry" />
        </mxCell>
      </root>
    </mxGraphModel>
  </diagram>
</mxfile>
